<?xml version="1.0" encoding="UTF-8"?>
<svg version="1.1" xmlns="http://www.w3.org/2000/svg" width="4725" height="4725">
<path d="M0 0 C2.130655 10.674906 4.14777549 21.34692844 5.6875 32.125 C5.80649658 32.95153076 5.92549316 33.77806152 6.0480957 34.62963867 C6.38862824 37.08407545 6.70093543 39.5401817 7 42 C7.14574463 43.14021606 7.14574463 43.14021606 7.29443359 44.3034668 C10.14711481 70.16965442 9.52033162 98.39284511 5 124 C4.69400879 125.74506836 4.69400879 125.74506836 4.38183594 127.52539062 C1.44524442 143.75999699 -2.46488339 159.4599987 -8 175 C-8.30131836 175.85964355 -8.60263672 176.71928711 -8.91308594 177.60498047 C-16.14859175 198.06729717 -25.43619593 217.62778775 -37 236 C-37.65355469 237.03898437 -38.30710937 238.07796875 -38.98046875 239.1484375 C-54.45808933 262.95525183 -73.41136095 285.52128216 -95 304 C-95.92425781 304.81339844 -96.84851562 305.62679688 -97.80078125 306.46484375 C-111.13998848 318.10768646 -125.80131145 327.95576125 -141 337 C-142.01320313 337.60642334 -142.01320313 337.60642334 -143.046875 338.22509766 C-185.7457324 363.53741373 -237.26427746 378.65346205 -287 378 C-287.4051984 419.61075895 -285.81942396 460.7576614 -273.84375 501 C-271.88037532 507.98088776 -272.68440211 514.02875635 -275.61328125 520.63671875 C-279.32385597 526.96037426 -284.85874021 530.64296098 -291.84765625 532.56640625 C-299.06218623 534.01978706 -305.78293292 532.65948631 -311.98828125 528.74609375 C-320.08097052 522.38631439 -322.10259514 512.96392616 -324.4375 503.375 C-324.7375293 502.15006836 -325.03755859 500.92513672 -325.34667969 499.66308594 C-328.62621129 485.8904532 -331.07304583 472.0242458 -333 458 C-333.16516113 456.80648926 -333.33032227 455.61297852 -333.50048828 454.38330078 C-336.95836212 428.03265721 -336.31110671 401.51955421 -336 375 C-336.79269287 374.9589917 -337.58538574 374.9179834 -338.40209961 374.87573242 C-346.34965841 374.37728946 -353.82997077 373.18341622 -361.5625 371.3125 C-362.69308838 371.04268311 -363.82367676 370.77286621 -364.98852539 370.49487305 C-407.64362515 360.14666571 -447.77827851 341.67446374 -482 314 C-483.01191406 313.19949219 -484.02382812 312.39898438 -485.06640625 311.57421875 C-501.40293957 298.4910491 -517.24982645 283.62587397 -530 267 C-531.01356488 265.71424583 -532.02795096 264.42913876 -533.04296875 263.14453125 C-564.51303517 223.01366363 -581.7462868 177.8183971 -593.8984375 128.70703125 C-594.11161621 127.8456958 -594.32479492 126.98436035 -594.54443359 126.09692383 C-595 124 -595 124 -595 122 C-590.37834549 121.30120769 -585.75593895 120.60768815 -581.1328125 119.91870117 C-579.56554677 119.68441422 -577.99848246 119.4487752 -576.43164062 119.21166992 C-516.58495799 110.16196376 -456.05735882 122.15426355 -406.609375 158.15625 C-402.32936353 161.34299508 -398.1461869 164.6415578 -394 168 C-393.3920459 168.49081055 -392.7840918 168.98162109 -392.15771484 169.48730469 C-378.49633578 180.61377663 -365.73655154 193.01276244 -355 207 C-353.99832869 208.26245946 -352.99564778 209.52411827 -351.9921875 210.78515625 C-337.95998176 228.57651385 -322.26844256 249.98670467 -316 272 C-315.34 272 -314.68 272 -314 272 C-313.77828125 270.78957031 -313.5565625 269.57914063 -313.328125 268.33203125 C-311.87372395 261.83156804 -309.31449846 255.81725673 -306.75 249.6875 C-306.48845123 249.06016968 -306.22690247 248.43283936 -305.95742798 247.78649902 C-290.76871684 211.48709553 -271.0035837 177.43314364 -246 147 C-245.55060059 146.4529541 -245.10120117 145.9059082 -244.63818359 145.34228516 C-234.8330919 133.47113299 -224.40538881 122.21833609 -213.52050781 111.33520508 C-211.99513287 109.80762584 -210.47799328 108.27216418 -208.9609375 106.73632812 C-202.63274386 100.37251733 -196.03529554 94.58753398 -189 89 C-187.97235492 88.13672487 -186.94893773 87.26833507 -185.93359375 86.390625 C-135.28441221 42.9543942 -73.55090674 17.60798977 -9.4609375 1.765625 C-8.73249634 1.58502029 -8.00405518 1.40441559 -7.25354004 1.21833801 C-2.24488864 0 -2.24488864 0 0 0 Z " fill="#258067" transform="translate(2153,1346)"/>
<path d="M0 0 C32.67 0 65.34 0 99 0 C103.65504584 6.40068802 108.19560235 12.66865397 112.4375 19.3125 C118.81538517 29.20619923 125.27602997 39.04401063 131.75 48.875 C132.83717908 50.52643482 133.92433707 52.17788353 135.01147461 53.8293457 C137.23464704 57.20635988 139.45807551 60.58320531 141.68164062 63.95996094 C146.43980994 71.18624365 151.19463497 78.41472617 155.94958496 85.64312744 C158.54957419 89.5955164 161.1497995 93.54775003 163.75 97.5 C164.79166779 99.0833326 165.83333445 100.66666593 166.875 102.25 C167.390625 103.03375 167.90625 103.8175 168.4375 104.625 C198.12499999 149.74999999 198.12499999 149.74999999 199.68716431 152.12449646 C200.72994173 153.70951367 201.77272739 155.29452546 202.81552124 156.87953186 C205.40276047 160.81205779 207.98986148 164.74467449 210.57666016 168.67749023 C215.46586485 176.11042306 220.35655193 183.54236966 225.25177002 190.97134399 C227.56866841 194.4876386 229.88482721 198.00442006 232.20092773 201.52124023 C233.30716531 203.20052082 234.41376681 204.87956173 235.52075195 206.55834961 C237.05381398 208.88334928 238.58562975 211.20916548 240.1171875 213.53515625 C240.56911469 214.21981461 241.02104187 214.90447296 241.48666382 215.60987854 C241.90727081 216.24916794 242.32787781 216.88845734 242.76123047 217.54711914 C243.12328583 218.09646622 243.48534119 218.64581329 243.85836792 219.21180725 C245.28470856 221.44595259 246.63626079 223.72710132 248 226 C248.33 151.42 248.66 76.84 249 0 C280.68 0 312.36 0 345 0 C345 135.63 345 271.26 345 411 C315.3 411 285.6 411 255 411 C249.39 402.42 243.78 393.84 238 385 C233.71192931 378.47676613 229.42141709 371.95522684 225.125 365.4375 C223.97049319 363.68533382 222.81603494 361.93313563 221.66162109 360.1809082 C219.28370708 356.57165973 216.90559207 352.96254382 214.52734375 349.35351562 C211.11089131 344.16868485 207.69583047 338.98293874 204.28125 333.796875 C203.73230072 332.96313858 203.18335144 332.12940216 202.61776733 331.270401 C201.5090731 329.58652803 200.40037966 327.90265453 199.29168701 326.21878052 C189.36530837 311.14309523 179.43403095 296.07064375 169.5 281 C159.01995 265.10100585 148.54276629 249.20012955 138.07177734 233.29516602 C132.84442635 225.35523508 127.61584195 217.41612672 122.38253784 209.4801178 C119.8951158 205.70795361 117.40838162 201.93533619 114.92169189 198.16268921 C113.73807399 196.36739935 112.55412228 194.57232953 111.36981201 192.77749634 C109.72745133 190.28842852 108.08626469 187.79859028 106.4453125 185.30859375 C105.72683136 184.22072067 105.72683136 184.22072067 104.99383545 183.11087036 C104.53970276 182.42129242 104.08557007 181.73171448 103.61767578 181.02124023 C103.23056427 180.43430893 102.84345276 179.84737762 102.4446106 179.24266052 C100.26019134 175.85149695 98.13791862 172.42066979 96 169 C95.67 248.86 95.34 328.72 95 411 C63.65 411 32.3 411 0 411 C0 275.37 0 139.74 0 0 Z " fill="#258067" transform="translate(3734,1885)"/>
<path d="M0 0 C32.67 0 65.34 0 99 0 C107.03604715 11.48006736 107.03604715 11.48006736 110.8359375 17.296875 C111.26800507 17.95541473 111.70007263 18.61395447 112.14523315 19.29244995 C113.07263532 20.70634468 113.99934763 22.1206921 114.92541504 23.53546143 C116.42122183 25.82061334 117.91887595 28.10454514 119.41699219 30.38818359 C121.54184258 33.62727571 123.66610566 36.86675185 125.79003906 40.10644531 C130.42149218 47.16905224 135.06381038 54.2245081 139.706604 61.27966309 C141.26402143 63.64630689 142.82123674 66.01308359 144.37841797 68.37988281 C152.65026649 80.95185251 160.9272682 93.52042693 169.20489502 106.08859253 C179.9179436 122.35465763 190.62421712 138.625171 201.32757568 154.89761353 C204.51138008 159.73773853 207.69615977 164.5772203 210.88168335 169.41621399 C213.06460758 172.7322324 215.24724313 176.0484408 217.42987061 179.36465454 C218.44149017 180.90151013 219.45323955 182.43828028 220.46514893 183.97494507 C229.67582195 197.96229026 238.83478159 211.98260714 248 226 C248.33 151.42 248.66 76.84 249 0 C280.35 0 311.7 0 344 0 C344 135.63 344 271.26 344 411 C314.63 411 285.26 411 255 411 C235.66587902 381.99881853 235.66587902 381.99881853 226.39453125 367.734375 C220.71148793 359.01036941 214.97852143 350.31918037 209.25 341.625 C208.6726712 340.74873962 208.09534241 339.87247925 207.5005188 338.96966553 C204.52342812 334.45126174 201.54597928 329.93309411 198.56835938 325.41503906 C193.43534179 317.62615783 188.30544167 309.83522391 183.17541504 302.04437256 C180.3670814 297.7794908 177.55852925 293.51475294 174.75 289.25 C173.62499896 287.54166735 172.49999896 285.83333402 171.375 284.125 C170.818125 283.279375 170.26125 282.43375 169.6875 281.5625 C168 279 166.3125 276.4375 164.625 273.875 C164.06817032 273.0294455 163.51134064 272.18389099 162.93763733 271.31271362 C161.81217334 269.60367232 160.68671558 267.8946269 159.56126404 266.18557739 C156.75591413 261.92554245 153.95045738 257.66557795 151.14477539 253.40576172 C145.99753952 245.59057116 140.8511933 237.77480065 135.70870972 229.95648193 C133.35082091 226.37183588 130.9923233 222.78759056 128.63378906 219.20336914 C127.53925174 217.5396661 126.44499289 215.87577981 125.35107422 214.21166992 C115.63369 199.42949522 105.81313499 184.71970249 96 170 C95.67 249.53 95.34 329.06 95 411 C63.65 411 32.3 411 0 411 C0 275.37 0 139.74 0 0 Z " fill="#258067" transform="translate(665,1885)"/>
<path d="M0 0 C213.08275862 0 213.08275862 0 265 28 C265.60392578 28.31936523 266.20785156 28.63873047 266.83007812 28.96777344 C280.87075412 36.42735588 292.55584082 46.07531434 304 57 C304.86496094 57.81210938 305.72992188 58.62421875 306.62109375 59.4609375 C343.55100798 95.0657534 358.39332583 148.52753391 359.32528687 198.47497559 C359.90625288 243.03538311 351.81775645 288.24236638 327 326 C326.61086426 326.59264648 326.22172852 327.18529297 325.82080078 327.79589844 C320.08616992 336.40841656 313.63117008 344.0970886 306.43310547 351.52001953 C305.10064523 352.8960628 303.78588058 354.28918089 302.47265625 355.68359375 C267.28141019 392.24370514 215.02355824 406.91470348 166 411 C111.22 411 56.44 411 0 411 C0 275.37 0 139.74 0 0 Z M102 80 C102 162.83 102 245.66 102 331 C143.73005009 332.36973154 143.73005009 332.36973154 184.25 325.3125 C185.48665405 324.93013184 185.48665405 324.93013184 186.74829102 324.54003906 C211.45390288 316.53051175 230.33112073 299.36383686 242.1875 276.4375 C249.393524 261.87480958 252.93986406 246.02966329 255 230 C255.13148437 229.02804688 255.26296875 228.05609375 255.3984375 227.0546875 C259.59574415 188.14452047 253.02861636 146.88000658 228.1875 115.75 C209.73396084 94.37089975 183.34517971 83.98576675 155.875 80.6875 C137.9452279 79.64946056 119.95979547 80 102 80 Z " fill="#258067" transform="translate(4146,1885)"/>
<path d="M0 0 C0.87668335 0.00182281 1.7533667 0.00364563 2.65661621 0.00552368 C23.57163443 0.07857823 43.33822021 2.3680394 63.4375 8.3125 C64.24219727 8.5492041 65.04689453 8.7859082 65.87597656 9.02978516 C90.91316299 16.60696003 114.04661881 29.81725406 132.921875 47.9375 C135.39511101 50.33822031 135.39511101 50.33822031 138.0703125 52.4140625 C141.69204076 55.31861685 144.48359763 58.74552356 147.4375 62.3125 C148.67886719 63.7975 148.67886719 63.7975 149.9453125 65.3125 C176.85312662 98.11705008 190.64383029 138.57108188 195.4375 180.3125 C195.53321289 181.08352051 195.62892578 181.85454102 195.72753906 182.64892578 C196.79093393 192.37384337 196.68131912 202.16667415 196.6875 211.9375 C196.68817474 212.89547485 196.68884949 213.85344971 196.68954468 214.8404541 C196.6243972 273.14196759 179.4960529 329.72874083 138.4375 372.3125 C137.27541016 373.56933594 137.27541016 373.56933594 136.08984375 374.8515625 C104.55198209 408.02160064 56.08203629 424.68444704 11.17138672 426.44018555 C-44.10458033 427.69038858 -94.73862514 413.61799338 -135.5625 375.20703125 C-171.45162764 340.85172558 -188.70869413 293.8433778 -194.5625 245.3125 C-194.665625 244.48484131 -194.76875 243.65718262 -194.875 242.80444336 C-195.88468877 233.48735996 -195.80624908 224.11059755 -195.8125 214.75 C-195.81317474 213.84065704 -195.81384949 212.93131409 -195.81454468 211.99441528 C-195.79681681 196.90534857 -195.08212806 182.22009086 -192.5625 167.3125 C-192.40152832 166.3318457 -192.24055664 165.35119141 -192.07470703 164.34082031 C-185.72523381 127.00030633 -170.75385128 90.88001176 -145.5625 62.3125 C-145.13614258 61.82587891 -144.70978516 61.33925781 -144.27050781 60.83789062 C-118.61529787 31.69179898 -84.70009483 12.94273506 -46.9375 4.5625 C-46.04466309 4.36374268 -45.15182617 4.16498535 -44.23193359 3.96020508 C-29.47309103 0.85651122 -15.03097774 -0.06504371 0 0 Z M-64.5625 110.3125 C-93.69592607 147.73388349 -96.89049355 199.94460295 -91.5625 245.3125 C-87.77061409 271.24202953 -80.40482098 297.39184273 -62.5625 317.3125 C-62.11003906 317.90546875 -61.65757812 318.4984375 -61.19140625 319.109375 C-50.0992562 333.46004984 -31.67186379 342.23136008 -14.05126953 345.01513672 C9.08227119 347.77917955 31.28640825 344.01217437 50.25 330 C51.67012445 328.79898046 53.06470267 327.56734217 54.4375 326.3125 C55.75814453 325.12914063 55.75814453 325.12914063 57.10546875 323.921875 C82.98815578 299.50289855 92.47157222 261.0001813 93.55859375 226.46533203 C94.62266313 183.83186686 90.12375147 138.39146592 60.4375 105.3125 C44.92243435 89.01186141 25.11803123 81.71738131 3.11328125 80.0625 C-23.46815919 79.49467217 -47.17333911 90.38964236 -64.5625 110.3125 Z " fill="#258067" transform="translate(415.5625,1877.6875)"/>
<path d="M0 0 C197.53395062 0 197.53395062 0 234 17 C234.96808594 17.43828125 235.93617188 17.8765625 236.93359375 18.328125 C249.04857398 24.062654 259.34092978 31.75122657 269 41 C269.63550781 41.58394531 270.27101563 42.16789062 270.92578125 42.76953125 C275.73751812 47.32521117 279.4071267 52.45029393 283 58 C283.86625 59.30710937 283.86625 59.30710937 284.75 60.640625 C303.72967335 90.97421008 306.07180636 131.34957614 298.43017578 165.55029297 C294.29819669 182.64689063 286.88730237 198.89348713 275 212 C274.31550781 212.81339844 273.63101563 213.62679687 272.92578125 214.46484375 C260.57227116 228.85878997 244.92173975 238.768837 228 247 C229.33561358 250.6289894 230.95983 253.69851057 233.08984375 256.921875 C233.70359863 257.85604248 234.31735352 258.79020996 234.94970703 259.75268555 C235.60567871 260.74179932 236.26165039 261.73091309 236.9375 262.75 C238.30885382 264.83446434 239.67994589 266.91910091 241.05078125 269.00390625 C241.7257666 270.02758301 242.40075195 271.05125977 243.09619141 272.10595703 C245.62689207 275.95295955 248.12930021 279.81773693 250.625 283.6875 C256.18062364 292.28659434 261.76113342 300.86943797 267.34277344 309.45166016 C270.06258969 313.63395863 272.78124278 317.81701304 275.5 322 C276.58332761 323.66667039 277.66666095 325.33333705 278.75 327 C285.25 337 291.75 347 298.25 357 C298.78705566 357.82612793 299.32411133 358.65225586 299.87744141 359.50341797 C300.95304926 361.15842337 302.02824934 362.81369385 303.10302734 364.46923828 C305.92615295 368.81666311 308.75768885 373.15830151 311.6015625 377.4921875 C312.19130859 378.39324219 312.78105469 379.29429687 313.38867188 380.22265625 C314.51495778 381.94312448 315.64371725 383.66197694 316.77539062 385.37890625 C319.46240784 389.48926129 321.92411559 393.54758585 324 398 C318.31061419 399.49326023 312.65187205 400.65210189 306.84936523 401.60400391 C305.97186615 401.75059952 305.09436707 401.89719513 304.1902771 402.04823303 C301.31360839 402.52778003 298.43616053 403.0024364 295.55859375 403.4765625 C293.54653364 403.80988141 291.53449478 404.14332868 289.5224762 404.47689819 C285.315897 405.17341913 281.1088954 405.86732044 276.90161133 406.55957031 C271.51844056 407.44566759 266.13666121 408.33992578 260.75520229 409.23635292 C256.60451182 409.92654717 252.4529812 410.61157693 248.30119514 411.29514694 C246.31663698 411.62268945 244.33237284 411.95201874 242.34841728 412.28319168 C239.57354571 412.74576227 236.79758454 413.20114967 234.02124023 413.65478516 C233.20805832 413.79190414 232.3948764 413.92902313 231.55705261 414.07029724 C226.99928263 414.80623664 222.63449935 415.27412553 218 415 C216.29418945 413.46557617 216.29418945 413.46557617 215.11328125 411.29296875 C214.65663086 410.48907715 214.19998047 409.68518555 213.72949219 408.85693359 C213.26188477 407.97602051 212.79427734 407.09510742 212.3125 406.1875 C211.26402666 404.3281238 210.21318875 402.47007924 209.16015625 400.61328125 C208.63309082 399.66791504 208.10602539 398.72254883 207.56298828 397.74853516 C205.26158355 393.7014851 202.76681679 389.79037968 200.25 385.875 C193.35332413 375.04309462 186.65484079 364.09038115 179.93554688 353.14794922 C177.07068912 348.48858042 174.19312601 343.83713203 171.3125 339.1875 C170.52564819 337.91737061 170.52564819 337.91737061 169.72290039 336.62158203 C168.67424843 334.92914049 167.62550233 333.23675727 166.57666016 331.54443359 C163.88291444 327.19723356 161.19162847 322.84851114 158.5 318.5 C157.96568359 317.63697266 157.43136719 316.77394531 156.88085938 315.88476562 C149.5651006 304.06835911 149.5651006 304.06835911 146.97607422 299.86621094 C145.87430118 298.09212027 144.7601522 296.32565111 143.63330078 294.56738281 C140.63649575 289.86079907 138.08892227 285.30807689 136.12915039 280.07446289 C134.45581113 276.76947102 134.45581113 276.76947102 129 271 C120.09 270.67 111.18 270.34 102 270 C102 316.53 102 363.06 102 411 C68.34 411 34.68 411 0 411 C0 275.37 0 139.74 0 0 Z M102 78 C102 116.94 102 155.88 102 196 C148.28436646 197.87937948 148.28436646 197.87937948 186.625 178 C198.0427681 166.1031647 201.51056333 150.24074801 201.42431641 134.24194336 C200.92330158 117.43104643 195.34151192 103.62801826 183 92 C160.4344764 73.84180523 128.75141506 78 102 78 Z " fill="#258067" transform="translate(2252,1885)"/>
<path d="M0 0 C33.99 0 67.98 0 103 0 C103.029729 11.54440063 103.029729 11.54440063 103.06005859 23.32202148 C103.12498343 47.99895335 103.19952364 72.67584728 103.28005161 97.35273286 C103.2925692 101.19129107 103.30500217 105.02984955 103.31738281 108.8684082 C103.31984881 109.63253692 103.3223148 110.39666564 103.32485552 111.18394978 C103.36448679 123.5267522 103.39727655 135.86956368 103.42749982 148.21239232 C103.4587079 160.89463059 103.49735663 173.57683076 103.54279006 186.25902611 C103.57055245 194.07299745 103.59263799 201.88694121 103.60726251 209.70094837 C103.61913603 215.71134007 103.6414045 221.72164936 103.66738319 227.73199844 C103.67639534 230.1839975 103.68213418 232.63601131 103.68421364 235.08802605 C103.71132227 262.2164959 104.46577783 292.28409315 124.7265625 312.890625 C139.92282486 326.99024987 157.3697134 330.76521164 177.66796875 330.2890625 C194.76306563 329.57009571 210.46542946 323.57336881 222.34765625 310.9921875 C236.11388303 294.39460911 240.13764438 273.0883341 240.15821838 252.0534668 C240.16315636 250.97265713 240.16809434 249.89184746 240.17318195 248.77828598 C240.18849983 245.16859839 240.19690208 241.55892852 240.20532227 237.94921875 C240.21490528 235.35693711 240.22491561 232.76465701 240.23532104 230.17237854 C240.25702577 224.59747042 240.27519204 219.02255988 240.29092598 213.44763184 C240.31367952 205.38731327 240.3418146 197.32702049 240.37124526 189.26672387 C240.41885412 176.18808123 240.46213637 163.10942801 240.50268555 150.03076172 C240.54207466 137.32925596 240.58350903 124.62775958 240.62768555 111.92626953 C240.63177196 110.75105246 240.63177196 110.75105246 240.63594092 109.55209363 C240.64962096 105.62144784 240.66334112 101.6908022 240.67708123 97.76015663 C240.79094061 65.17345619 240.89697386 32.58673694 241 0 C274.99 0 308.98 0 344 0 C344.08844492 33.80943313 344.16219946 67.61875253 344.20426132 101.42826681 C344.20926319 105.43419305 344.21444058 109.44011905 344.21972656 113.44604492 C344.2207758 114.24343791 344.22182505 115.04083091 344.22290608 115.86238732 C344.2402361 128.71580651 344.27173218 141.56915298 344.30861118 154.42252926 C344.34622809 167.64493019 344.36827929 180.86729346 344.37635398 194.0897457 C344.38179914 202.22622983 344.39889436 210.36250829 344.43166587 218.49892899 C344.45307112 224.10435356 344.45914246 229.70967432 344.45400551 235.31513665 C344.45148331 238.53273706 344.45720203 241.74991525 344.4768219 244.96746635 C344.72244735 287.38450684 336.04247945 331.46443882 307 364 C306.20851563 364.92296875 305.41703125 365.8459375 304.6015625 366.796875 C290.95456139 382.38114756 273.72824454 393.47815328 255 402 C253.83339844 402.53367187 252.66679687 403.06734375 251.46484375 403.6171875 C233.84015729 411.15110663 214.98175404 414.93435063 196 417 C194.80761719 417.13148438 193.61523438 417.26296875 192.38671875 417.3984375 C146.98080168 421.42243494 94.14350681 414.39181821 57.55859375 385.17578125 C53.28073683 381.5379701 49.08464799 377.85443433 45 374 C44.18917969 373.26523438 43.37835937 372.53046875 42.54296875 371.7734375 C12.94813969 343.90303155 1.39045807 300.4343857 -0.1140542 261.01142025 C-0.28703272 253.17333239 -0.25116169 245.33458055 -0.22705078 237.49511719 C-0.22648535 234.89121505 -0.22680579 232.2873126 -0.22793579 229.68341064 C-0.22897502 224.12014565 -0.22280041 218.55692825 -0.21146011 212.99367523 C-0.19507562 204.95055289 -0.18998401 196.90745312 -0.18748413 188.8643159 C-0.18312712 175.80894501 -0.16987268 162.75359939 -0.15087891 149.69824219 C-0.13246811 137.03027471 -0.11833719 124.36231413 -0.10986328 111.69433594 C-0.10933783 110.91102357 -0.10881239 110.12771121 -0.10827102 109.32066211 C-0.10566059 105.39028003 -0.10313326 101.4598979 -0.10064721 97.52951574 C-0.07997692 65.01965476 -0.04314115 32.50984086 0 0 Z " fill="#258067" transform="translate(3327,1885)"/>
<path d="M0 0 C0.83237906 0.00092179 1.66475813 0.00184359 2.5223608 0.00279331 C3.47453487 0.00141865 4.42670895 0.00004398 5.40773678 -0.00137234 C6.46077496 0.00222294 7.51381313 0.00581821 8.59876156 0.00952244 C10.25221081 0.0093034 10.25221081 0.0093034 11.93906307 0.00907993 C15.60226021 0.00977961 19.26540723 0.01757459 22.92859554 0.02539158 C25.46065398 0.02725556 27.99271277 0.02867956 30.52477169 0.0296793 C36.52067179 0.03311437 42.51655019 0.04100514 48.51244158 0.05102879 C55.33699987 0.06219105 62.16155901 0.06770066 68.98612416 0.07272422 C83.02815593 0.08318779 97.07017162 0.10078653 111.11218929 0.12304783 C118.67168257 21.0260218 126.20899874 41.93635241 133.67468929 62.87304783 C134.52683123 65.26109422 135.37904689 67.6491143 136.23132992 70.03711033 C137.98763176 74.95823454 139.74362873 79.87946736 141.49939632 84.8007822 C145.28678738 95.41583089 149.07810779 106.02947604 152.86923885 116.64318943 C154.95039344 122.46974779 157.03127729 128.29640283 159.11218929 134.12304783 C159.94552134 136.45638162 160.77885467 138.78971496 161.61218929 141.12304783 C176.61218929 183.12304783 191.61218929 225.12304783 206.61218929 267.12304783 C207.0246339 268.27789173 207.43707851 269.43273563 207.86202145 270.62257481 C208.69591685 272.95748396 209.52980967 275.29239404 210.36369991 277.62730503 C212.43841255 283.43653583 214.51316904 289.24575097 216.58801937 295.05493259 C220.44059612 305.84154988 224.29277208 316.62830983 228.14340878 327.41561985 C229.93220633 332.42680759 231.72129919 337.43788989 233.51038265 342.44897556 C234.3506725 344.80277367 235.19084743 347.1566128 236.03089046 349.510499 C236.82214374 351.72765492 237.6135735 353.94474786 238.40518856 356.16177464 C239.1678276 358.29795705 239.92994452 360.43432594 240.69150448 362.57089329 C242.67199773 368.12060353 244.67050593 373.66311175 246.6927557 379.19775486 C247.32127186 380.92391781 247.32127186 380.92391781 247.96248531 382.68495274 C248.76637004 384.89056434 249.57412774 387.09476931 250.38628292 389.29734898 C250.74418407 390.28082813 251.10208523 391.26430729 251.47083187 392.27758884 C251.78861095 393.14336048 252.10639004 394.00913212 252.43379879 394.90113926 C253.11218929 397.12304783 253.11218929 397.12304783 253.11218929 400.12304783 C243.270561 401.76721484 233.42877864 403.41045639 223.58680916 405.05257988 C219.01471091 405.81545873 214.44266242 406.57863299 209.87073421 407.34253025 C205.44229674 408.08244048 201.01372001 408.82151225 196.58505344 409.56005001 C194.91210108 409.83917869 193.23919553 410.11858815 191.56634235 410.39831066 C186.87850508 411.1820707 182.18982591 411.96038292 177.49969769 412.73032093 C175.84674678 413.00221873 174.19405559 413.27569838 172.54157543 413.5504427 C169.96342214 413.97815264 167.38427281 414.39932253 164.80481625 414.81909275 C164.02185523 414.95009278 163.23889421 415.08109282 162.43220711 415.21606255 C158.27656154 415.88493845 154.33867477 416.26325428 150.11218929 416.12304783 C147.20540715 409.05216023 144.58306014 401.91527214 142.10047054 394.68554783 C141.72794659 393.60716648 141.35542263 392.52878513 140.97161007 391.41772556 C139.78702007 387.986949 138.6057678 384.55503463 137.42468929 381.12304783 C136.65212935 378.88338635 135.87934446 376.64380245 135.10632992 374.40429783 C133.99466857 371.18328778 132.88325278 367.96219671 131.77364254 364.74047947 C127.56785885 352.52954478 123.33682359 340.3275469 119.11218929 328.12304783 C72.91218929 327.79304783 26.71218929 327.46304783 -20.88781071 327.12304783 C-21.54781071 330.09304783 -22.20781071 333.06304783 -22.88781071 336.12304783 C-23.79520352 339.10081807 -24.72938844 342.04652112 -25.72374821 344.99414158 C-26.00320286 345.83300404 -26.28265751 346.67186649 -26.57058048 347.53614902 C-27.16521103 349.31770978 -27.76204336 351.098537 -28.36095524 352.87866306 C-29.23084712 355.46549639 -30.09319487 358.05473531 -30.95421696 360.6445322 C-36.72365044 377.88278435 -42.83540911 394.97457664 -48.88781071 412.12304783 C-81.88781071 412.12304783 -114.88781071 412.12304783 -148.88781071 412.12304783 C-146.63789606 401.99843192 -146.63789606 401.99843192 -145.21813297 398.07714939 C-144.89844547 397.18564686 -144.57875797 396.29414433 -144.24938297 395.37562656 C-143.90447819 394.43118183 -143.5595734 393.4867371 -143.20421696 392.51367283 C-142.83731754 391.49506672 -142.47041813 390.47646061 -142.09240055 389.42698765 C-140.8833747 386.07384382 -139.66678112 382.72349724 -138.45031071 379.37304783 C-137.59222326 376.99671247 -136.73473048 374.62016231 -135.87780094 372.24340916 C-134.09830912 367.30937772 -132.31626888 362.37627818 -130.53234196 357.44384861 C-126.87405413 347.32368632 -123.24404709 337.19341379 -119.61531925 327.06262302 C-118.43988641 323.78144881 -117.2636757 320.50055434 -116.0872736 317.21972752 C-109.91937051 300.01611896 -103.77158602 282.80535477 -97.62783146 265.59311008 C-91.17072508 247.50366701 -84.69607786 229.42058559 -78.21056461 211.34130955 C-72.08837042 194.27375863 -65.98324187 177.20017404 -59.88781071 160.12304783 C-53.01473267 140.86724493 -46.12592025 121.61716664 -39.22164249 102.37252903 C-34.64931843 89.62729096 -30.08390291 76.87962248 -25.53234196 64.12695408 C-25.30859268 63.5001059 -25.08484341 62.87325771 -24.85431385 62.22741413 C-22.48012157 55.57588094 -20.10699792 48.92396791 -17.73546696 42.27148533 C-15.45850079 35.88666681 -13.17581662 29.50391838 -10.88781071 23.12304783 C-10.50397221 22.05189732 -10.12013371 20.9807468 -9.72466373 19.87713718 C-8.60923024 16.76908236 -7.48953654 13.66259957 -6.36827946 10.55664158 C-5.86219906 9.14548824 -5.86219906 9.14548824 -5.34589481 7.70582676 C-5.03641407 6.85149555 -4.72693333 5.99716434 -4.40807438 5.11694431 C-4.13742664 4.36638264 -3.86677891 3.61582096 -3.58792973 2.84251499 C-2.49680095 0.16274192 -2.49680095 0.16274192 0 0 Z M48.11218929 108.12304783 C38.8435387 136.32354617 29.61722088 164.53470985 20.61414242 192.82129002 C17.43059977 202.82265717 14.24306234 212.82036538 10.89343929 222.76757908 C10.65073299 223.48887501 10.4080267 224.21017094 10.15796566 224.95332432 C9.06644654 228.19011896 7.96564682 231.423163 6.85242367 234.65258884 C6.48439632 235.73338718 6.11636898 236.81418552 5.73718929 237.92773533 C5.42007992 238.8453867 5.10297054 239.76303806 4.77625179 240.70849705 C3.9354032 243.34848004 3.9354032 243.34848004 4.11218929 247.12304783 C33.81218929 247.12304783 63.51218929 247.12304783 94.11218929 247.12304783 C92.89791003 241.65879116 91.75294462 236.66224096 90.04358578 231.4089365 C89.63755123 230.1542104 89.23151669 228.89948429 88.81317806 227.60673618 C88.36996965 226.2514669 87.92666852 224.89622794 87.48328304 223.54101658 C87.01611462 222.10284224 86.54930619 220.66455093 86.08283138 219.22615147 C84.83468218 215.38098084 83.58139452 211.5375034 82.32709026 207.69433689 C81.02558926 203.70346991 79.72900635 199.71100552 78.43176937 195.71875095 C73.59646335 180.84438573 68.74033367 165.97681745 63.87781429 151.11132908 C63.28414814 149.29631145 63.28414814 149.29631145 62.67848873 147.44462681 C60.84412039 141.83801828 59.00756286 136.23214401 57.16663265 130.6276865 C56.83576656 129.61888935 56.50490047 128.6100922 56.16400814 127.57072544 C55.55822665 125.72385377 54.95142965 123.87731468 54.34332943 122.03120518 C52.83166676 117.41927607 51.41075269 112.79960695 50.11218929 108.12304783 C49.45218929 108.12304783 48.79218929 108.12304783 48.11218929 108.12304783 Z " fill="#258067" transform="translate(1624.8878107070923,1883.8769521713257)"/>
<path d="M0 0 C84.48 0 168.96 0 256 0 C256 27.39 256 54.78 256 83 C204.85 83 153.7 83 101 83 C101 107.42 101 131.84 101 157 C140.27 157 179.54 157 220 157 C222.145 170.674375 224.29 184.34875 226.5 198.4375 C227.17869141 202.76157959 227.85738281 207.08565918 228.55664062 211.54077148 C229.38183594 216.80480957 229.38183594 216.80480957 229.76745605 219.26600647 C230.03800847 220.99183992 230.30886444 222.7176258 230.57995605 224.44337463 C230.9895583 227.05125075 231.39820919 229.65927429 231.80664062 232.26733398 C231.98932369 233.42829794 231.98932369 233.42829794 232.17569733 234.61271572 C233 239.88597366 233 239.88597366 233 241 C189.44 241 145.88 241 101 241 C101 270.04 101 299.08 101 329 C154.13 329 207.26 329 262 329 C262 356.06 262 383.12 262 411 C175.54 411 89.08 411 0 411 C0 275.37 0 139.74 0 0 Z " fill="#258067" transform="translate(2611,1885)"/>
<path d="M0 0 C84.48 0 168.96 0 256 0 C256 27.39 256 54.78 256 83 C204.52 83 153.04 83 100 83 C100 107.42 100 131.84 100 157 C108.57871094 156.98839844 117.15742187 156.97679687 125.99609375 156.96484375 C132.10325753 156.95908835 138.21041928 156.95396143 144.31758404 156.94974613 C152.23915388 156.94419434 160.16071325 156.93713467 168.08227539 156.92456055 C174.35184694 156.9146134 180.62141061 156.9081465 186.89098984 156.90591151 C190.21265621 156.90460445 193.53429466 156.90100003 196.85595512 156.89426994 C200.55819947 156.88706372 204.26039631 156.88600888 207.96264648 156.88647461 C209.07178909 156.88287933 210.1809317 156.87928406 211.32368469 156.87557983 C212.82767319 156.87764183 212.82767319 156.87764183 214.36204529 156.87974548 C215.23867042 156.87882369 216.11529554 156.8779019 217.01848507 156.87695217 C219 157 219 157 220 158 C220.45278364 160.36141722 220.85014698 162.71120407 221.21508789 165.08666992 C221.3908712 166.19896973 221.3908712 166.19896973 221.57020569 167.33374023 C221.95854875 169.79867881 222.34079372 172.26451851 222.72265625 174.73046875 C222.99004115 176.44106056 223.25765791 178.15161615 223.52549744 179.86213684 C224.08717715 183.45560734 224.64581343 187.04953491 225.20239258 190.64379883 C225.91495937 195.24360045 226.63529867 199.84214428 227.35799503 204.44036388 C227.91289182 207.97695021 228.4634587 211.51420034 229.01275444 215.05166054 C229.2765204 216.74668977 229.54166149 218.44150562 229.80821419 220.13609886 C230.18132899 222.51219078 230.54855727 224.88912213 230.91430664 227.26635742 C231.08026337 228.31165367 231.08026337 228.31165367 231.24957275 229.37806702 C231.85587855 233.36646403 232 236.91234887 232 241 C188.44 241 144.88 241 100 241 C100 270.04 100 299.08 100 329 C153.13 329 206.26 329 261 329 C261 356.06 261 383.12 261 411 C174.87 411 88.74 411 0 411 C0 275.37 0 139.74 0 0 Z " fill="#258067" transform="translate(1077,1885)"/>
<path d="M0 0 C0.33 0.33 0.66 0.66 1 1 C0.87281207 11.00343315 -1.13245744 21.04916915 -2.6875 30.91015625 C-2.95301479 32.61213127 -3.21822751 34.31415344 -3.4831543 36.01622009 C-4.03526236 39.55737837 -4.59023876 43.09807067 -5.14746094 46.63842773 C-5.86168107 51.17711543 -6.56975404 55.71673618 -7.27586365 60.25669193 C-7.82116842 63.75965245 -8.36909141 67.2621993 -8.9178772 70.76461601 C-9.18009741 72.43947261 -9.44163762 74.11443582 -9.70248413 75.78950691 C-10.06600578 78.12058292 -10.43290719 80.45110158 -10.80078125 82.78149414 C-10.96134506 83.81704689 -10.96134506 83.81704689 -11.12515259 84.8735199 C-11.57355384 87.69403048 -12.09443722 90.28331165 -13 93 C-16.61693483 91.75625847 -19.500677 90.0508281 -22.60229492 87.82714844 C-51.20537107 67.42170367 -88.4229027 56.49625384 -123.4453125 62.25390625 C-140.89973657 65.91741724 -156.82481101 72.79357491 -170 85 C-170.72703125 85.65871094 -171.4540625 86.31742188 -172.203125 86.99609375 C-196.38844399 109.93522264 -205.09205716 146.82724297 -206 179 C-206.03996094 180.12277344 -206.07992188 181.24554687 -206.12109375 182.40234375 C-206.75506601 216.74872342 -199.63679465 255.16949532 -175.14819336 280.85864258 C-173.77851071 282.25204267 -172.38949818 283.62635915 -171 285 C-170.20980469 285.80050781 -169.41960937 286.60101562 -168.60546875 287.42578125 C-157.29618334 298.28494585 -143.90221827 304.64580912 -129 309 C-127.89269531 309.3403125 -126.78539063 309.680625 -125.64453125 310.03125 C-107.17578694 314.70797775 -85.41071418 313.61675401 -67 309 C-65.98365479 308.76651855 -65.98365479 308.76651855 -64.94677734 308.52832031 C-45.96852739 304.15376166 -28.02919013 296.06763633 -11.0703125 286.6171875 C-8 285 -8 285 -6 285 C-3.91307733 295.06242227 -2.09773308 305.13303527 -0.51953125 315.2890625 C-0.29978351 316.69056778 -0.07986511 318.09204632 0.14021301 319.49349976 C0.59517471 322.39556988 1.04781901 325.29798908 1.4987793 328.20068359 C2.07563156 331.91217388 2.65890889 335.6226227 3.24392223 339.33283424 C3.69702013 342.21147837 4.14653686 345.09067301 4.5949955 347.97004318 C4.80873741 349.33930874 5.02363388 350.70839462 5.23973656 352.07728958 C5.54004584 353.98275417 5.83495744 355.88906708 6.12963867 357.79541016 C6.29823898 358.87601715 6.46683929 359.95662415 6.64054871 361.06997681 C6.97257145 363.77641957 7.2064071 366.28051666 7 369 C5.18164062 370.62939453 5.18164062 370.62939453 2.65625 372.0078125 C1.7384375 372.5121582 0.820625 373.01650391 -0.125 373.53613281 C-34.48174108 391.02959575 -71.21748891 399.47056095 -109.625 399.3125 C-110.54720337 399.31067719 -111.46940674 399.30885437 -112.41955566 399.30697632 C-126.472216 399.26028418 -140.176941 398.72946166 -154 396 C-154.90476074 395.82839355 -155.80952148 395.65678711 -156.74169922 395.47998047 C-198.82541599 387.31709625 -238.66673216 366.52584005 -265 332 C-265.73734375 331.06671875 -266.4746875 330.1334375 -267.234375 329.171875 C-288.41910695 301.85087586 -300.42544402 268.9104872 -306 235 C-306.16226074 234.04528809 -306.32452148 233.09057617 -306.49169922 232.10693359 C-311.29333669 202.59841846 -311.08794243 170.44640368 -306 141 C-305.83902832 140.05318359 -305.67805664 139.10636719 -305.51220703 138.13085938 C-297.17618878 91.14166138 -274.38820895 44.54986958 -236 15 C-235.03964844 14.21238281 -234.07929687 13.42476562 -233.08984375 12.61328125 C-169.76350978 -38.38403195 -69.48962486 -37.47252615 0 0 Z " fill="#258067" transform="translate(2194,1904)"/>
<path d="M0 0 C81.18 0 162.36 0 246 0 C246 28.38 246 56.76 246 86 C198.48 86 150.96 86 102 86 C102 113.06 102 140.12 102 168 C137.31 168 172.62 168 209 168 C211.31 181.963125 213.62 195.92625 216 210.3125 C216.73089844 214.72278564 217.46179687 219.13307129 218.21484375 223.67700195 C219.10351563 229.05895996 219.10351563 229.05895996 219.51879883 231.57780457 C219.80958008 233.33865251 220.10131501 235.09934312 220.39379883 236.85990906 C220.83638533 239.52513831 221.2759526 242.19084954 221.71484375 244.85668945 C221.91157936 246.03496418 221.91157936 246.03496418 222.11228943 247.23704243 C222.59683011 250.19593047 223 252.99585556 223 256 C183.07 256 143.14 256 102 256 C102 307.15 102 358.3 102 411 C68.34 411 34.68 411 0 411 C0 275.37 0 139.74 0 0 Z " fill="#258067" transform="translate(3040,1885)"/>
<path d="M0 0 C5.27685279 2.94496556 10.3297016 1.01159694 15.9375 -0.25 C18.76570811 -0.80010126 21.60054339 -1.3096765 24.4375 -1.8125 C25.16517578 -1.94253418 25.89285156 -2.07256836 26.64257812 -2.20654297 C32.72389096 -3.26790417 38.76711674 -3.96300543 44.9375 -4.25 C46.175 -4.311875 46.175 -4.311875 47.4375 -4.375 C59.64728715 -4.68807147 71.28350321 -2.89143206 80.8125 5.1875 C90.38004597 16.72483485 91.09760946 29.30292256 89.9375 43.75 C86.89472952 70.37139266 74.56326436 96.21557847 64.94007874 120.99771118 C53.02964841 151.30406211 53.02964841 151.30406211 42.5625 182.125 C42.294375 182.98480469 42.02625 183.84460937 41.75 184.73046875 C40.11186863 190.30191554 39.02372177 195.92345409 38.9375 201.75 C41.13717007 203.94967007 45.42123432 203.05586448 48.37841797 203.07788086 C61.03771109 202.90437231 73.67928883 200.34062402 86.12768555 198.2019043 C88.99103098 197.74139058 91.72636406 197.54851274 94.625 197.5 C96.02298828 197.46132812 96.02298828 197.46132812 97.44921875 197.421875 C99.9375 197.75 99.9375 197.75 101.58837891 198.97875977 C103.35993789 201.30461218 103.21411945 202.52915873 103.01171875 205.41796875 C102.95693359 206.31064453 102.90214844 207.20332031 102.84570312 208.12304688 C102.77287109 209.05181641 102.70003906 209.98058594 102.625 210.9375 C102.5331543 212.34805664 102.5331543 212.34805664 102.43945312 213.78710938 C102.28620489 216.10940957 102.1183714 218.42971458 101.9375 220.75 C102.741875 221.02199219 103.54625 221.29398438 104.375 221.57421875 C105.220625 221.96222656 106.06625 222.35023438 106.9375 222.75 C108.1638636 226.19914763 108.27541721 227.96389787 106.82421875 231.33984375 C104.35640751 234.49230655 102.63959907 234.75217556 98.75 235.5 C97.58210938 235.72816406 96.41421875 235.95632812 95.2109375 236.19140625 C94.13070313 236.37574219 93.05046875 236.56007813 91.9375 236.75 C91.20789062 236.88277344 90.47828125 237.01554687 89.7265625 237.15234375 C74.54755784 239.49003856 74.54755784 239.49003856 68.9375 235.75 C68.609375 232.88671875 68.609375 232.88671875 68.6875 229.4375 C68.70296875 228.30699219 68.7184375 227.17648438 68.734375 226.01171875 C68.91276705 223.14715411 69.3435588 220.54860568 69.9375 217.75 C69.25163818 217.80534912 68.56577637 217.86069824 67.85913086 217.91772461 C54.26672522 218.99627319 40.6757382 219.91782412 27.04959106 220.42288208 C25.68899282 220.47407595 24.328528 220.52895589 22.9682312 220.58761597 C21.05348219 220.66861451 19.13805514 220.73306569 17.22265625 220.796875 C15.58115601 220.85633301 15.58115601 220.85633301 13.90649414 220.91699219 C10.76944347 220.7405476 8.7065266 220.21946484 5.9375 218.75 C2.85501511 214.12627266 3.40758015 210.16961755 3.9375 204.75 C7.32638197 189.79081218 13.54252527 175.61727142 19.25 161.4375 C20.171927 159.13114028 21.0931547 156.8245009 22.01367188 154.51757812 C24.22782443 148.97324066 26.45024929 143.43227049 28.67584229 137.89251709 C30.65711994 132.95758203 32.63137751 128.01984445 34.60546875 123.08203125 C35.25804668 121.45027271 35.91063344 119.8185177 36.56323242 118.18676758 C37.01674072 117.05263428 37.47024902 115.91850098 37.9375 114.75 C37.29860336 114.81983093 36.65970673 114.88966187 36.00144958 114.96160889 C28.31728964 115.77114226 20.72577571 115.96929647 13 116 C11.05963867 116.0309375 11.05963867 116.0309375 9.08007812 116.0625 C-0.11112839 116.0997302 -8.43530351 115.44218705 -16.5 110.75 C-23.1701779 102.94101124 -23.66019212 93.55415259 -23.4375 83.6875 C-23.42460938 82.47304199 -23.41171875 81.25858398 -23.3984375 80.00732422 C-23.24394951 70.69097414 -22.5860293 61.44664605 -21.78588867 52.16699219 C-21.1770938 44.91948731 -20.81321524 37.71089919 -20.75 30.4375 C-20.72389648 29.0764917 -20.72389648 29.0764917 -20.69726562 27.68798828 C-20.70093139 22.89957882 -20.8951338 19.61095004 -24.0625 15.75 C-28.12217939 13.7201603 -32.9413823 14.22538192 -37.2578125 15.29296875 C-42.67634085 17.48716369 -44.45588618 20.74268061 -46.87988281 25.86767578 C-48.89967642 30.79040149 -50.12454408 35.82265654 -51.3125 41 C-51.74357056 42.81504028 -51.74357056 42.81504028 -52.18334961 44.66674805 C-54.09302215 52.84424074 -55.73043891 61.06771706 -57.30078125 69.31640625 C-57.49338531 70.32357697 -57.68598938 71.33074768 -57.88442993 72.36843872 C-58.84250293 77.39378864 -59.78170475 82.42154592 -60.69042969 87.45605469 C-64.23386924 106.65746636 -69.11080196 125.94951563 -86.0625 137.75 C-92.71430292 141.24019833 -99.65005886 143.57602221 -107.0625 144.75 C-107.73152344 144.86085938 -108.40054687 144.97171875 -109.08984375 145.0859375 C-125.84198871 147.39442675 -144.64425343 146.37723047 -159.0625 136.75 C-161.5126393 134.63712684 -163.32135786 132.46944273 -165.0625 129.75 C-165.43761719 129.17894531 -165.81273437 128.60789062 -166.19921875 128.01953125 C-172.3546987 117.28748628 -172.57980135 104.15262041 -172.4375 92.125 C-172.43317963 91.42922852 -172.42885925 90.73345703 -172.42440796 90.01660156 C-172.24220039 64.88848906 -168.6889704 37.9230639 -150.50390625 18.96875 C-134.38685298 4.32157199 -114.70257529 3.79145348 -94.0625 4.75 C-86.96457272 5.40763928 -79.65539041 6.37183393 -72.81201172 8.42529297 C-67.68937101 9.88656257 -64.8444042 9.84958926 -60.1418457 7.28369141 C-59.49691162 6.90132324 -58.85197754 6.51895508 -58.1875 6.125 C-56.78993768 5.36577008 -55.3901877 4.6105533 -53.98828125 3.859375 C-53.31619629 3.49263672 -52.64411133 3.12589844 -51.95166016 2.74804688 C-37.9993553 -4.6229821 -14.24545815 -8.7846992 0 0 Z M8.9375 16.75 C8.46346317 19.31565106 8.46346317 19.31565106 8.3046875 22.46875 C8.22049561 23.6956958 8.13630371 24.9226416 8.04956055 26.18676758 C7.96926282 27.54110325 7.89027693 28.89551723 7.8125 30.25 C7.77113922 30.93162201 7.72977844 31.61324402 7.68716431 32.31552124 C7.06763263 42.67748635 6.71061767 53.04055252 6.63995361 63.42089844 C6.63008995 64.83353635 6.6156641 66.24615076 6.59637451 67.65869141 C6.48536145 76.90335195 6.40729726 86.00944203 12.125 93.6875 C19.5896904 99.16160629 26.91032108 99.5727017 35.9375 98.75 C41.55903843 97.60437842 44.61826695 95.41558862 47.9375 90.75 C57.08827663 72.88913571 60.62113665 48.8427764 55.4375 29.25 C52.69330496 21.92570478 48.12309704 18.54551833 41.5 14.8125 C32.27161767 11.84623425 17.64876499 12.39436751 8.9375 16.75 Z M-131.6796875 33.5859375 C-139.6859474 46.11550808 -139.41642055 62.78682089 -139.37817383 77.14208984 C-139.37501316 79.61470684 -139.39856881 82.08612343 -139.42382812 84.55859375 C-139.58805082 104.43512797 -139.58805082 104.43512797 -131.0625 121.75 C-126.34815053 126.46434947 -122.50750358 127.92283694 -115.875 128.125 C-109.68686146 128.07676284 -105.60048617 127.01423294 -101.0625 122.75 C-92.00313011 112.73737059 -90.55060103 95.53186859 -88.0625 82.625 C-87.71893325 80.87309231 -87.37518068 79.12122105 -87.03125 77.36938477 C-84.91156059 66.49829379 -82.91240815 55.60770483 -81.0625 44.6875 C-80.85496094 43.4711084 -80.64742187 42.2547168 -80.43359375 41.00146484 C-79.53597266 35.51922837 -78.80441402 30.30691367 -79.0625 24.75 C-107.82655442 19.35370603 -107.82655442 19.35370603 -131.6796875 33.5859375 Z " fill="#258067" transform="translate(1832.0625,2854.25)"/>
<path d="M0 0 C4.00320618 8.00641237 0.44710865 22.61452221 -1 31 C-0.26885986 30.98952637 0.46228027 30.97905273 1.21557617 30.96826172 C4.53951559 30.92659711 7.86339995 30.90064044 11.1875 30.875 C12.33798828 30.85824219 13.48847656 30.84148438 14.67382812 30.82421875 C15.78564453 30.81777344 16.89746094 30.81132812 18.04296875 30.8046875 C19.06414795 30.79421387 20.08532715 30.78374023 21.13745117 30.77294922 C24.38841399 31.0308081 27.61199318 31.61199318 30 34 C30.10078253 36.23775251 30.13082162 38.47873003 30.1328125 40.71875 C30.13479141 41.7478524 30.13479141 41.7478524 30.1368103 42.79774475 C30.13873097 45.03187542 30.13239152 47.26588205 30.125 49.5 C30.12367065 50.6271492 30.12367065 50.6271492 30.12231445 51.77706909 C30.10727908 62.54717063 29.91804858 73.26211035 29 84 C29.59683594 83.5153125 30.19367188 83.030625 30.80859375 82.53125 C47.97441419 69.26791177 67.28767605 62.98951182 89 65 C99.34408238 66.77508257 105.66185342 70.84112298 112.3125 78.75 C119.04477112 91.71585548 118.54558044 107.69523313 115.10546875 121.6171875 C111.46905077 132.74488352 106.00672946 143.64635234 95.6875 149.8125 C94.14218187 150.57740663 92.57909554 151.30750628 91 152 C90.28585937 152.3196875 89.57171875 152.639375 88.8359375 152.96875 C69.73482654 160.05782211 46.19438276 152.72640817 28 146 C28.16064941 147.01884277 28.32129883 148.03768555 28.48681641 149.08740234 C28.95236611 152.63683127 29.15438279 156.02616358 29.2109375 159.6015625 C29.23728271 160.87854004 29.26362793 162.15551758 29.29077148 163.47119141 C29.30405487 164.14676086 29.31733826 164.82233032 29.33102417 165.51837158 C29.6108825 178.92477043 30.33892179 192.26130012 31.4375 205.625 C31.49903259 206.38806458 31.56056519 207.15112915 31.6239624 207.93731689 C32.44432719 218.00765489 33.56704579 227.99766867 35 238 C25.44074735 241.37399906 14.69727809 244.02082262 5 240 C1.92000418 237.50270609 0.66016097 235.86079173 0 232 C-0.08908751 229.4218091 -0.12631994 226.87161682 -0.11352539 224.29394531 C-0.11367142 223.52282913 -0.11381744 222.75171295 -0.1139679 221.95722961 C-0.11327249 219.4141659 -0.10549749 216.87117588 -0.09765625 214.328125 C-0.09579075 212.56264282 -0.09436747 210.79716013 -0.09336853 209.03167725 C-0.08955375 204.38908454 -0.07973232 199.7465232 -0.06866455 195.10394287 C-0.0584281 190.36487248 -0.05386612 185.62579701 -0.04882812 180.88671875 C-0.03810913 171.59113206 -0.02104517 162.29556864 0 153 C-1.16297104 153.55615494 -2.32594208 154.11230988 -3.52415466 154.68531799 C-5.0673742 155.41871656 -6.61067802 156.1519378 -8.15405273 156.88500977 C-8.91849449 157.25115639 -9.68293625 157.61730301 -10.47054291 157.99454498 C-15.89289159 160.56408095 -21.20256524 162.59319256 -27.0625 163.9375 C-27.82498047 164.13150391 -28.58746094 164.32550781 -29.37304688 164.52539062 C-43.07315051 167.90654344 -59.21306345 169.39147755 -72.05078125 162.38671875 C-79.5612689 157.04358626 -83.63464647 150.33291637 -85.55078125 141.4453125 C-87.96615138 122.92047378 -87.12259636 100.80977957 -75.75 85.25 C-69.24987182 77.44158331 -61.2068049 71.88547606 -50.89111328 70.77246094 C-31.23834946 69.44191401 -14.56617987 74.95680822 1 87 C0.93941406 86.06728271 0.87882812 85.13456543 0.81640625 84.17358398 C0.59098551 80.68671535 0.36758132 77.19972929 0.14550781 73.71264648 C0.04930085 72.20836345 -0.04769103 70.70413039 -0.14550781 69.19995117 C-0.28661156 67.02796137 -0.42481697 64.85580276 -0.5625 62.68359375 C-0.64628906 61.37962646 -0.73007813 60.07565918 -0.81640625 58.73217773 C-0.99274506 55.14748178 -1.03249183 51.5883164 -1 48 C-2.01368652 48.01571045 -2.01368652 48.01571045 -3.04785156 48.03173828 C-6.11519642 48.07335976 -9.18248178 48.09934573 -12.25 48.125 C-13.31347656 48.14175781 -14.37695312 48.15851562 -15.47265625 48.17578125 C-17.00986328 48.18544922 -17.00986328 48.18544922 -18.578125 48.1953125 C-19.99206543 48.21102295 -19.99206543 48.21102295 -21.43457031 48.22705078 C-24.13506607 47.98804611 -25.73292865 47.46364181 -28 46 C-29.83996784 42.32006432 -29.37083096 37.72872465 -29.51757812 33.6484375 C-29.81269256 27.32296575 -30.4107632 21.38385519 -34 16 C-34.99 15.67 -35.98 15.34 -37 15 C-37.75 11.75 -37.75 11.75 -38 8 C-34.97819244 3.82627624 -30.94700617 2.67926493 -26.1875 1.3125 C-25.50107422 1.10044922 -24.81464844 0.88839844 -24.10742188 0.66992188 C-6.61150719 -4.57719729 -6.61150719 -4.57719729 0 0 Z M28 102 C27.72108853 105.01263725 27.72108853 105.01263725 27.8046875 108.5390625 C27.81113281 109.84101563 27.81757812 111.14296875 27.82421875 112.484375 C27.84093071 113.86458595 27.85786061 115.24479429 27.875 116.625 C27.88502994 118.01301452 27.89415577 119.40103589 27.90234375 120.7890625 C27.92598137 124.19288026 27.95893133 127.59635506 28 131 C41.26943829 137.00563705 58.8263675 140.83786349 73 136 C78.37283356 133.2140863 81.75179327 129.75880435 83.6875 123.9296875 C86.35788059 113.28525375 85.80861298 100.52647015 80.37890625 90.7890625 C76.51149623 85.77128972 71.29187175 82.85964322 65.0625 81.9375 C49.82211363 81.32505789 38.12023312 91.87976688 28 102 Z M-48.8125 93.4375 C-55.521445 102.68496473 -54.86190507 116.11516473 -53.68359375 126.89453125 C-52.32166456 134.88206193 -49.41671096 141.8055197 -43 147 C-34.02941303 150.58318804 -24.70025806 149.9797887 -15.8515625 146.3515625 C-6.8684058 142.5061796 -6.8684058 142.5061796 1 137 C2.31091717 124.24376755 -0.40708167 110.42737879 -8 100 C-14.89104992 92.2221272 -23.56059314 88.42225619 -33.8125 87.75 C-39.81414911 87.86323866 -44.27595683 89.50582925 -48.8125 93.4375 Z " fill="#258067" transform="translate(1275,2833)"/>
<path d="M0 0 C6.28192231 6.07111955 10.55376398 13.06327255 10.81347656 22.00830078 C10.81609169 24.23595473 10.79528043 26.46043637 10.74609375 28.6875 C26.54462535 27.88243759 42.08243961 26.83696754 57.67358398 24.00878906 C71.44378507 21.53634566 71.44378507 21.53634566 75.74609375 23.6875 C78.77294834 29.74120918 76.35322912 39.18247813 75.74609375 45.6875 C76.95265625 46.120625 76.95265625 46.120625 78.18359375 46.5625 C80.74609375 47.6875 80.74609375 47.6875 81.74609375 49.6875 C82.11961156 53.12386386 82.29214078 54.96215395 80.17578125 57.7734375 C73.23658388 63.24000777 60.9577749 62.9630297 52.37109375 63.0625 C51.63995361 63.07635742 50.90881348 63.09021484 50.15551758 63.10449219 C48.09765625 63.0859375 48.09765625 63.0859375 44.74609375 62.6875 C41.90098946 58.41984357 42.35267836 54.69598052 42.74609375 49.6875 C43.24683147 47.24424527 43.92429116 45.05018245 44.74609375 42.6875 C44.07102783 42.8414624 43.39596191 42.9954248 42.70043945 43.15405273 C39.28522816 43.77071555 35.94073219 44.00881861 32.4765625 44.22265625 C31.79555984 44.26563339 31.11455719 44.30861053 30.41291809 44.35289001 C28.25332798 44.4884486 26.09348248 44.6192946 23.93359375 44.75 C22.46287119 44.841485 20.9921678 44.93327863 19.52148438 45.02539062 C15.92990234 45.24966585 12.33807601 45.46971765 8.74609375 45.6875 C8.267771 46.88246094 8.267771 46.88246094 7.77978516 48.1015625 C0.03377149 67.12949895 -13.88700151 83.55486875 -31.25390625 94.6875 C-31.58390625 95.3475 -31.91390625 96.0075 -32.25390625 96.6875 C-31.73183594 96.90664062 -31.20976563 97.12578125 -30.671875 97.3515625 C-18.23209321 104.22459218 -6.10308098 117.16715166 -1.84375 130.76953125 C0.33552763 141.550461 -0.86631731 150.91062995 -6.83203125 160.125 C-10.41486576 165.03122384 -14.13064201 168.4462512 -19.25390625 171.6875 C-0.52795165 172.26965403 18.59617254 171.08970212 37.01318359 167.6640625 C51.28856286 165.04914608 51.28856286 165.04914608 56.74609375 168.6875 C57.17961752 174.54007095 56.46464846 180.32134914 55.8671875 186.1484375 C55.5388744 188.68082357 55.5388744 188.68082357 56.74609375 190.6875 C58.7707263 191.33963292 58.7707263 191.33963292 60.74609375 191.6875 C61.55859375 194.875 61.55859375 194.875 61.74609375 198.6875 C58.51978584 203.01500283 55.682961 204.35561646 50.56469727 205.19482422 C49.41698853 205.34588623 49.41698853 205.34588623 48.24609375 205.5 C47.05874634 205.67426514 47.05874634 205.67426514 45.84741211 205.85205078 C28.19229814 208.27309943 28.19229814 208.27309943 23.9140625 205.5 C22.30950758 203.00998836 22.41549092 201.25450327 22.49609375 198.3125 C22.5115625 197.37664063 22.52703125 196.44078125 22.54296875 195.4765625 C22.73768848 192.80291088 23.15711447 190.2999081 23.74609375 187.6875 C22.62203125 187.74808594 21.49796875 187.80867188 20.33984375 187.87109375 C-12.84008255 189.56398189 -46.03792236 189.85596434 -79.25390625 189.6875 C-79.10953125 190.36441895 -78.96515625 191.04133789 -78.81640625 191.73876953 C-78.63078125 192.63192871 -78.44515625 193.52508789 -78.25390625 194.4453125 C-78.06828125 195.32848145 -77.88265625 196.21165039 -77.69140625 197.12158203 C-77.08678011 200.66768736 -77.15483244 203.25289434 -78.25390625 206.6875 C-82.44845146 210.03188403 -86.0764784 211.40547324 -91.31640625 212.375 C-92.28562012 212.55434082 -92.28562012 212.55434082 -93.27441406 212.73730469 C-109.5131265 215.60109325 -109.5131265 215.60109325 -115.25390625 213.6875 C-116.45663444 211.28204362 -116.35462097 209.73753047 -116.31640625 207.0625 C-116.30738281 206.24523438 -116.29835938 205.42796875 -116.2890625 204.5859375 C-116.27166016 203.64621094 -116.27166016 203.64621094 -116.25390625 202.6875 C-113.77890625 201.6975 -113.77890625 201.6975 -111.25390625 200.6875 C-111.16151209 194.95906219 -111.41992545 189.5253656 -112.23046875 183.8515625 C-112.25390625 181.6875 -112.25390625 181.6875 -110.25390625 178.6875 C-107.12890625 177.58984375 -107.12890625 177.58984375 -103.25390625 176.625 C-101.36671875 176.14353516 -101.36671875 176.14353516 -99.44140625 175.65234375 C-98.04657179 175.32642436 -96.65067053 175.00504711 -95.25390625 174.6875 C-94.48336914 174.50582275 -93.71283203 174.32414551 -92.91894531 174.13696289 C-86.58410389 172.73920187 -80.47577482 172.38227892 -74.00390625 172.25 C-54.41489149 171.71203839 -54.41489149 171.71203839 -37.87890625 162.3125 C-34.18326262 156.34261413 -33.44047198 150.58135547 -34.25390625 143.6875 C-39.37174948 124.43743059 -58.4561336 113.07693464 -73.46875 101.74609375 C-110.31522841 73.92910965 -110.31522841 73.92910965 -114 52.6171875 C-115.24983105 38.19606003 -112.34670459 25.14316009 -103.25390625 13.6875 C-90.41635574 -1.40720225 -71.88794702 -7.97710795 -52.62890625 -10 C-35.66083381 -11.18381901 -13.7927463 -11.47005929 0 0 Z M-70.25390625 11.6875 C-71.61515625 12.5228125 -71.61515625 12.5228125 -73.00390625 13.375 C-80.10762734 20.67604667 -81.55861344 28.60178557 -81.56860352 38.40649414 C-81.2735597 53.8797093 -71.9577369 63.46322969 -61.41015625 73.734375 C-56.92460529 78.00234326 -52.13602201 81.88175622 -47.25390625 85.6875 C-35.99451092 76.5841591 -25.29458667 64.76029656 -22.46875 49.99609375 C-21.32350847 37.68995291 -21.4267233 26.32337462 -29.50390625 16.25 C-35.43342197 10.0271964 -42.37708337 7.62155987 -50.83862305 7.39550781 C-58.1442759 7.32425798 -63.91773446 7.63743028 -70.25390625 11.6875 Z " fill="#258067" transform="translate(1544.25390625,2860.3125)"/>
<path d="M0 0 C7.68936966 7.43133712 10.7148689 15.02264713 11.1484375 25.69311523 C11.50642771 47.91088282 0.89134 65.36184272 -14.12890625 80.9375 C-18.72086137 85.40534823 -23.67838119 89.16228467 -28.8828125 92.875 C-31.32753595 94.46892594 -31.32753595 94.46892594 -32.25390625 96.6875 C-31.73183594 96.90664062 -31.20976562 97.12578125 -30.671875 97.3515625 C-18.23209321 104.22459218 -6.10308098 117.16715166 -1.84375 130.76953125 C0.33552763 141.550461 -0.86631731 150.91062995 -6.83203125 160.125 C-10.41486576 165.03122384 -14.13064201 168.4462512 -19.25390625 171.6875 C-0.52795165 172.26965403 18.59617254 171.08970212 37.01318359 167.6640625 C51.28856286 165.04914608 51.28856286 165.04914608 56.74609375 168.6875 C57.17961752 174.54007095 56.46464846 180.32134914 55.8671875 186.1484375 C55.5388744 188.68082357 55.5388744 188.68082357 56.74609375 190.6875 C58.7707263 191.33963292 58.7707263 191.33963292 60.74609375 191.6875 C61.55859375 194.875 61.55859375 194.875 61.74609375 198.6875 C58.51978584 203.01500283 55.682961 204.35561646 50.56469727 205.19482422 C49.41698853 205.34588623 49.41698853 205.34588623 48.24609375 205.5 C47.05874634 205.67426514 47.05874634 205.67426514 45.84741211 205.85205078 C28.19229814 208.27309943 28.19229814 208.27309943 23.9140625 205.5 C22.30950758 203.00998836 22.41549092 201.25450327 22.49609375 198.3125 C22.5115625 197.37664063 22.52703125 196.44078125 22.54296875 195.4765625 C22.73768848 192.80291088 23.15711447 190.2999081 23.74609375 187.6875 C22.62203125 187.74808594 21.49796875 187.80867188 20.33984375 187.87109375 C-12.84008255 189.56398189 -46.03792236 189.85596434 -79.25390625 189.6875 C-79.10953125 190.36441895 -78.96515625 191.04133789 -78.81640625 191.73876953 C-78.63078125 192.63192871 -78.44515625 193.52508789 -78.25390625 194.4453125 C-78.06828125 195.32848145 -77.88265625 196.21165039 -77.69140625 197.12158203 C-77.08678011 200.66768736 -77.15483244 203.25289434 -78.25390625 206.6875 C-82.44845146 210.03188403 -86.0764784 211.40547324 -91.31640625 212.375 C-92.28562012 212.55434082 -92.28562012 212.55434082 -93.27441406 212.73730469 C-109.5131265 215.60109325 -109.5131265 215.60109325 -115.25390625 213.6875 C-116.45663444 211.28204362 -116.35462097 209.73753047 -116.31640625 207.0625 C-116.30738281 206.24523438 -116.29835938 205.42796875 -116.2890625 204.5859375 C-116.27166016 203.64621094 -116.27166016 203.64621094 -116.25390625 202.6875 C-113.77890625 201.6975 -113.77890625 201.6975 -111.25390625 200.6875 C-111.16151209 194.95906219 -111.41992545 189.5253656 -112.23046875 183.8515625 C-112.25390625 181.6875 -112.25390625 181.6875 -110.25390625 178.6875 C-107.12890625 177.58984375 -107.12890625 177.58984375 -103.25390625 176.625 C-101.36671875 176.14353516 -101.36671875 176.14353516 -99.44140625 175.65234375 C-98.04657179 175.32642436 -96.65067053 175.00504711 -95.25390625 174.6875 C-94.48336914 174.50582275 -93.71283203 174.32414551 -92.91894531 174.13696289 C-86.58410389 172.73920187 -80.47577482 172.38227892 -74.00390625 172.25 C-54.41489149 171.71203839 -54.41489149 171.71203839 -37.87890625 162.3125 C-34.18326262 156.34261413 -33.44047198 150.58135547 -34.25390625 143.6875 C-39.37174948 124.43743059 -58.4561336 113.07693464 -73.46875 101.74609375 C-110.31522841 73.92910965 -110.31522841 73.92910965 -114 52.6171875 C-115.24983105 38.19606003 -112.34670459 25.14316009 -103.25390625 13.6875 C-90.41635574 -1.40720225 -71.88794702 -7.97710795 -52.62890625 -10 C-35.66083381 -11.18381901 -13.7927463 -11.47005929 0 0 Z M-70.25390625 11.6875 C-71.61515625 12.5228125 -71.61515625 12.5228125 -73.00390625 13.375 C-80.10762734 20.67604667 -81.55861344 28.60178557 -81.56860352 38.40649414 C-81.2735597 53.8797093 -71.9577369 63.46322969 -61.41015625 73.734375 C-56.92460529 78.00234326 -52.13602201 81.88175622 -47.25390625 85.6875 C-35.99451092 76.5841591 -25.29458667 64.76029656 -22.46875 49.99609375 C-21.32350847 37.68995291 -21.4267233 26.32337462 -29.50390625 16.25 C-35.43342197 10.0271964 -42.37708337 7.62155987 -50.83862305 7.39550781 C-58.1442759 7.32425798 -63.91773446 7.63743028 -70.25390625 11.6875 Z " fill="#258067" transform="translate(3233.25390625,2860.3125)"/>
<path d="M0 0 C7.99214471 7.85819815 10.15564921 16.86859291 10.25 27.75 C10.28938833 49.33699395 -1.00416008 66.34248352 -15.625 81.3125 C-22.2953618 87.9706001 -29.87556079 93.52659577 -37.46533203 99.08251953 C-39.19841495 100.36255006 -39.19841495 100.36255006 -41.0625 102.3125 C-40.45664063 102.93253906 -39.85078125 103.55257812 -39.2265625 104.19140625 C-21.14718211 123.2999206 -12.27450075 143.21934449 -12.75390625 169.71875 C-13.27866032 182.76574752 -18.34458845 193.10332199 -27.8125 202.125 C-42.95024301 214.47344679 -63.51021663 214.53783138 -82.0625 214.3125 C-81.90394531 215.01117187 -81.74539063 215.70984375 -81.58203125 216.4296875 C-81.03418312 219.46962676 -80.82351117 222.35003092 -80.75 225.4375 C-80.71261719 226.47132813 -80.67523437 227.50515625 -80.63671875 228.5703125 C-81.0625 231.3125 -81.0625 231.3125 -82.5859375 233.046875 C-85.93229398 234.75700039 -89.35570627 235.62783669 -93 236.4375 C-94.12474731 236.69297607 -94.12474731 236.69297607 -95.2722168 236.95361328 C-112.3543595 240.66657025 -112.3543595 240.66657025 -119.0625 237.3125 C-119.0625 233.6825 -119.0625 230.0525 -119.0625 226.3125 C-117.4125 226.3125 -115.7625 226.3125 -114.0625 226.3125 C-113.9582096 220.05507594 -114.36887595 214.11680572 -115.234375 207.9140625 C-115.0625 205.3125 -115.0625 205.3125 -113.34448242 203.734375 C-109.4214322 201.28997097 -105.10440384 200.64295905 -100.625 199.6875 C-99.60889648 199.46658691 -98.59279297 199.24567383 -97.54589844 199.01806641 C-89.72775809 197.42270061 -82.12998812 196.82751147 -74.16992188 196.61791992 C-63.91733949 196.31457154 -55.13402881 194.66578042 -47.8125 186.9375 C-42.162341 178.4622615 -42.56653294 168.26985035 -44.27734375 158.60546875 C-48.0214616 142.90252672 -57.42547094 130.0666451 -68.0625 118.3125 C-68.63516602 117.67812012 -69.20783203 117.04374023 -69.79785156 116.39013672 C-75.69213112 109.89430237 -81.566241 103.48254466 -88.28125 97.8203125 C-102.68695462 85.6260099 -114.49180439 68.49281639 -116.34765625 49.375 C-116.81066282 34.23669829 -112.41673803 20.30969208 -102.03515625 9.15234375 C-79.10374369 -12.23517172 -26.02440474 -21.18763215 0 0 Z M-71.0625 11.3125 C-71.97 11.89 -72.8775 12.4675 -73.8125 13.0625 C-81.39912815 20.64912815 -83.89714692 29.79879985 -84.0625 40.3125 C-83.27826281 56.41114684 -74.82382159 67.36099305 -64.0625 78.3125 C-62.21498066 80.418604 -60.40060619 82.54723305 -58.59765625 84.69140625 C-56.89918719 86.484955 -55.07296072 87.88390048 -53.0625 89.3125 C-39.1552002 78.5970395 -26.50799329 66.34498823 -23.0625 48.3125 C-22.22346605 35.97457449 -23.16193846 25.06524544 -31.21484375 15.03515625 C-38.78972042 7.97274481 -48.16522184 6.86258542 -58.02734375 7.02734375 C-63.00557261 7.25671804 -66.87267498 8.62503985 -71.0625 11.3125 Z " fill="#258067" transform="translate(2088.0625,2860.6875)"/>
<path d="M0 0 C3.40889865 3.033292 5.89536593 6.53809642 8.44140625 10.30078125 C8.94615479 11.03192139 9.45090332 11.76306152 9.97094727 12.51635742 C11.07859837 14.12092677 12.1830357 15.72771819 13.28466797 17.33642578 C15.15471009 20.054111 17.04725132 22.75494216 18.9453125 25.453125 C27.59767263 37.76976751 36.00633949 50.21336777 44.06640625 62.92578125 C44.56543457 63.70824219 45.06446289 64.49070312 45.57861328 65.296875 C64.04618847 94.36139267 69.59830883 122.07262765 70.3125 156.30859375 C70.32920746 157.10560196 70.34591492 157.90261017 70.36312866 158.72377014 C70.42883401 161.98682862 70.49112164 165.24987717 70.54321289 168.51318359 C70.12007189 185.16996834 70.12007189 185.16996834 74.06640625 200.92578125 C74.72640625 201.25578125 75.38640625 201.58578125 76.06640625 201.92578125 C78.06640625 202.92578125 78.06640625 202.92578125 79.06640625 204.92578125 C79.44140625 207.80078125 79.44140625 207.80078125 79.06640625 210.92578125 C71.56287086 218.22165422 59.91078075 219.26077341 49.90625 220.04296875 C44.69191571 219.82779677 44.69191571 219.82779677 42.06640625 217.92578125 C40.02103129 211.56454666 39.76431231 204.90095634 39.72265625 198.2734375 C39.6941965 196.43937138 39.66571251 194.60530564 39.63720703 192.77124023 C39.6203183 191.35402176 39.6203183 191.35402176 39.60308838 189.90817261 C39.06839928 147.34700916 36.70303731 110.76542195 13.16796875 74.25390625 C11.63981466 71.83385554 10.25788474 69.51822895 9.06640625 66.92578125 C-8.74004592 81.65399036 -18.26105374 100.14562105 -23.68359375 122.36328125 C-23.88235107 123.17224854 -24.0811084 123.98121582 -24.28588867 124.81469727 C-27.68082783 139.6095307 -28.30068033 154.25542247 -28.24609375 169.36328125 C-28.24593262 170.27744812 -28.24577148 171.19161499 -28.24560547 172.13348389 C-28.2275299 186.90800587 -27.40178995 201.33103953 -24.93359375 215.92578125 C-33.71105534 218.76336568 -43.95675614 221.92434474 -53.12109375 219.05078125 C-57.10793157 216.03850378 -57.81006381 212.69073861 -58.93359375 207.92578125 C-59.31710118 204.69588356 -59.35496647 201.51572275 -59.33203125 198.265625 C-59.33621567 197.36631256 -59.34040009 196.46700012 -59.3447113 195.54043579 C-59.35095877 192.64768775 -59.33220806 189.75592981 -59.30859375 186.86328125 C-59.30427338 185.87568817 -59.299953 184.88809509 -59.29550171 183.87057495 C-59.21918344 169.04541228 -58.78895438 154.51737048 -55.93359375 139.92578125 C-55.7619873 139.03536133 -55.59038086 138.14494141 -55.41357422 137.22753906 C-48.47519907 102.54186381 -32.78846289 75.11890076 -6.93359375 50.92578125 C-6.27359375 50.59578125 -5.61359375 50.26578125 -4.93359375 49.92578125 C-6.47993586 45.05526658 -9.29628526 41.67663355 -12.49609375 37.80078125 C-13.03041016 37.1449707 -13.56472656 36.48916016 -14.11523438 35.81347656 C-15.20085752 34.48206418 -16.28889562 33.15261712 -17.37939453 31.82519531 C-18.79482552 30.09537233 -20.19405683 28.35425558 -21.5859375 26.60546875 C-22.74802734 25.15527344 -22.74802734 25.15527344 -23.93359375 23.67578125 C-24.95453125 22.39960938 -24.95453125 22.39960938 -25.99609375 21.09765625 C-29.34435688 17.34436129 -31.92691473 15.62115334 -36.93359375 14.92578125 C-37.26359375 12.28578125 -37.59359375 9.64578125 -37.93359375 6.92578125 C-29.36598478 0.36335736 -9.6897366 -6.85119858 0 0 Z " fill="#258067" transform="translate(2279.93359375,2855.07421875)"/>
<path d="M0 0 C2.08789062 1.50952148 2.08789062 1.50952148 4 4 C4.40616388 6.91423989 4.58135598 9.46452664 4.57421875 12.37890625 C4.58838333 13.1873851 4.60254791 13.99586395 4.61714172 14.82884216 C4.65900601 17.40686384 4.67427295 19.98418644 4.6875 22.5625 C4.71657647 25.1440583 4.75114258 27.72544042 4.78999329 30.30686951 C4.81243864 31.91165708 4.82828362 33.51655348 4.83683777 35.12147522 C4.86793433 38.33804428 4.97549834 40.92649502 6 44 C12.14117465 46.38242162 18.2545737 46.39023907 24.76757812 46.56640625 C30.79735525 46.79735525 30.79735525 46.79735525 33 49 C33.94647638 55.62533466 31.60004667 59.69635982 28 65 C25.9690873 67.70330947 23.91143698 70.37815149 21.81738281 73.0324707 C17.82602462 78.11898213 14.347591 83.46871553 11 89 C12.13953125 88.79503906 13.2790625 88.59007813 14.453125 88.37890625 C34.45256327 84.91791667 56.06341354 81.18420714 74 93 C81.35018533 99.08087622 83.32690048 110.06866585 84.21305084 119.19392014 C84.51059877 124.56532729 84.41144973 129.93245714 84.3203125 135.30859375 C84.3077243 137.01293045 84.29726004 138.71728399 84.28878784 140.42164612 C84.26249234 144.85867465 84.21376781 149.29512609 84.15808105 153.73187256 C84.07099995 160.85404661 84.01209406 167.97637983 83.9659996 175.09892464 C83.94576737 177.56563634 83.91167322 180.03186762 83.87600708 182.49839783 C83.79670345 189.91862942 83.90136373 196.81106543 86 204 C87.32 204 88.64 204 90 204 C91.62612006 206.48700716 91.99989211 207.99482146 92.0625 211 C90.83991478 214.45200534 89.52752043 215.5338315 86.265625 217.125 C77.69999973 220.43310355 64.56449024 224.41792057 55.65625 221.13671875 C54 220 54 220 53 218 C52.92258465 215.45430056 52.9057125 212.93690223 52.93408203 210.3918457 C52.94109131 209.21322968 52.94109131 209.21322968 52.94824219 208.01080322 C52.95876326 206.29910737 52.97143194 204.5874237 52.98596573 202.87575722 C53.00799137 200.15367544 53.02207265 197.43166352 53.03366089 194.70951843 C53.0672229 186.96729961 53.1082926 179.22519344 53.17138672 171.4831543 C53.20940474 166.74756861 53.23217516 162.0121043 53.24569321 157.27638817 C53.25366779 155.48291858 53.26716069 153.68946361 53.28662491 151.89608192 C53.67793552 128.88039953 53.67793552 128.88039953 43.3125 109.1875 C33.16067351 102.48346364 21.56001121 103.02081053 9.82421875 104.36328125 C5.25520799 105.38246878 2.56586739 106.92343237 -0.25 110.6875 C-11.64978509 130.75754418 -15.21783197 155.14778202 -15.25 177.875 C-15.25200409 178.56197968 -15.25400818 179.24895935 -15.256073 179.95675659 C-15.26389323 190.9065193 -14.35019212 201.29627528 -12 212 C-11.65534799 213.9980806 -11.31781214 215.99747496 -11 218 C-21.48713527 221.40296838 -32.64666913 223.83660314 -43.328125 220.08203125 C-46.26415201 218.18184555 -46.81915061 215.75469842 -47.609375 212.45703125 C-53.59286052 159.50318439 -33.24444001 106.17366381 -4 63 C-5.89685547 62.92652344 -5.89685547 62.92652344 -7.83203125 62.8515625 C-9.49220947 62.7765262 -11.15236464 62.70097873 -12.8125 62.625 C-14.06256836 62.57859375 -14.06256836 62.57859375 -15.33789062 62.53125 C-16.14033203 62.49257812 -16.94277344 62.45390625 -17.76953125 62.4140625 C-18.50792236 62.3826416 -19.24631348 62.3512207 -20.00708008 62.31884766 C-22 62 -22 62 -25 60 C-25.96312031 57.11063906 -26.16337457 55.11036105 -26.24609375 52.09765625 C-26.27759521 51.12997314 -26.30909668 50.16229004 -26.34155273 49.1652832 C-26.37321533 48.14136475 -26.40487793 47.11744629 -26.4375 46.0625 C-26.39879664 31.48484736 -26.39879664 31.48484736 -31 18 C-31.99 17.67 -32.98 17.34 -34 17 C-35.50275341 13.99449319 -35.58765005 12.33001693 -35 9 C-27.48037146 2.28033194 -9.98477213 -2.67836097 0 0 Z " fill="#258067" transform="translate(2988,2853)"/>
<path d="M0 0 C2.08789062 1.50952148 2.08789062 1.50952148 4 4 C4.40616388 6.91423989 4.58135598 9.46452664 4.57421875 12.37890625 C4.58838333 13.1873851 4.60254791 13.99586395 4.61714172 14.82884216 C4.65900601 17.40686384 4.67427295 19.98418644 4.6875 22.5625 C4.71657647 25.1440583 4.75114258 27.72544042 4.78999329 30.30686951 C4.81243864 31.91165708 4.82828362 33.51655348 4.83683777 35.12147522 C4.86793433 38.33804428 4.97549834 40.92649502 6 44 C12.14117465 46.38242162 18.2545737 46.39023907 24.76757812 46.56640625 C30.79735525 46.79735525 30.79735525 46.79735525 33 49 C33.94647638 55.62533466 31.60004667 59.69635982 28 65 C25.9690873 67.70330947 23.91143698 70.37815149 21.81738281 73.0324707 C17.82602462 78.11898213 14.347591 83.46871553 11 89 C12.13953125 88.79503906 13.2790625 88.59007813 14.453125 88.37890625 C34.45256327 84.91791667 56.06341354 81.18420714 74 93 C81.35018533 99.08087622 83.32690048 110.06866585 84.21305084 119.19392014 C84.51059877 124.56532729 84.41144973 129.93245714 84.3203125 135.30859375 C84.3077243 137.01293045 84.29726004 138.71728399 84.28878784 140.42164612 C84.26249234 144.85867465 84.21376781 149.29512609 84.15808105 153.73187256 C84.07099995 160.85404661 84.01209406 167.97637983 83.9659996 175.09892464 C83.94576737 177.56563634 83.91167322 180.03186762 83.87600708 182.49839783 C83.79670345 189.91862942 83.90136373 196.81106543 86 204 C87.32 204 88.64 204 90 204 C91.62612006 206.48700716 91.99989211 207.99482146 92.0625 211 C90.83991478 214.45200534 89.52752043 215.5338315 86.265625 217.125 C77.69999973 220.43310355 64.56449024 224.41792057 55.65625 221.13671875 C54 220 54 220 53 218 C52.92258465 215.45430056 52.9057125 212.93690223 52.93408203 210.3918457 C52.94109131 209.21322968 52.94109131 209.21322968 52.94824219 208.01080322 C52.95876326 206.29910737 52.97143194 204.5874237 52.98596573 202.87575722 C53.00799137 200.15367544 53.02207265 197.43166352 53.03366089 194.70951843 C53.0672229 186.96729961 53.1082926 179.22519344 53.17138672 171.4831543 C53.20940474 166.74756861 53.23217516 162.0121043 53.24569321 157.27638817 C53.25366779 155.48291858 53.26716069 153.68946361 53.28662491 151.89608192 C53.67793552 128.88039953 53.67793552 128.88039953 43.3125 109.1875 C33.16067351 102.48346364 21.56001121 103.02081053 9.82421875 104.36328125 C5.25520799 105.38246878 2.56586739 106.92343237 -0.25 110.6875 C-11.64978509 130.75754418 -15.21783197 155.14778202 -15.25 177.875 C-15.25200409 178.56197968 -15.25400818 179.24895935 -15.256073 179.95675659 C-15.26389323 190.9065193 -14.35019212 201.29627528 -12 212 C-11.65534799 213.9980806 -11.31781214 215.99747496 -11 218 C-21.48713527 221.40296838 -32.64666913 223.83660314 -43.328125 220.08203125 C-46.26415201 218.18184555 -46.81915061 215.75469842 -47.609375 212.45703125 C-53.59286052 159.50318439 -33.24444001 106.17366381 -4 63 C-5.89685547 62.92652344 -5.89685547 62.92652344 -7.83203125 62.8515625 C-9.49220947 62.7765262 -11.15236464 62.70097873 -12.8125 62.625 C-14.06256836 62.57859375 -14.06256836 62.57859375 -15.33789062 62.53125 C-16.14033203 62.49257812 -16.94277344 62.45390625 -17.76953125 62.4140625 C-18.50792236 62.3826416 -19.24631348 62.3512207 -20.00708008 62.31884766 C-22 62 -22 62 -25 60 C-25.96312031 57.11063906 -26.16337457 55.11036105 -26.24609375 52.09765625 C-26.27759521 51.12997314 -26.30909668 50.16229004 -26.34155273 49.1652832 C-26.37321533 48.14136475 -26.40487793 47.11744629 -26.4375 46.0625 C-26.39879664 31.48484736 -26.39879664 31.48484736 -31 18 C-31.99 17.67 -32.98 17.34 -34 17 C-35.50275341 13.99449319 -35.58765005 12.33001693 -35 9 C-27.48037146 2.28033194 -9.98477213 -2.67836097 0 0 Z " fill="#258067" transform="translate(2447,2853)"/>
<path d="M0 0 C0.94101563 -0.01417969 1.88203125 -0.02835938 2.8515625 -0.04296875 C5.375 0.1875 5.375 0.1875 8.375 2.1875 C9.95716441 5.95385626 9.50050397 10.21506562 9.47265625 14.234375 C9.4712413 15.00557678 9.46982635 15.77677856 9.46836853 16.5713501 C9.46278534 19.02677338 9.45023595 21.48210442 9.4375 23.9375 C9.43248283 25.60546743 9.4279203 27.27343629 9.42382812 28.94140625 C9.41282141 33.02347287 9.39556836 37.10547081 9.375 41.1875 C10.23367676 41.23865967 11.09235352 41.28981934 11.97705078 41.3425293 C24.57496615 42.18410481 37.0789199 44.3240359 46.0625 53.875 C58.96662401 69.52776029 56.60846622 92.36907422 55.79077148 111.34204102 C55.4388946 119.74890252 55.20064801 128.14791916 55.14181519 136.56164551 C55.12531294 138.52526288 55.09320247 140.48872922 55.06079102 142.45214844 C55.05619873 143.65129883 55.05160645 144.85044922 55.046875 146.0859375 C55.03285645 147.67414307 55.03285645 147.67414307 55.01855469 149.29443359 C55.43129574 152.64442093 56.29333226 154.5418186 58.375 157.1875 C59.365 157.1875 60.355 157.1875 61.375 157.1875 C63.75970191 163.26848988 63.75970191 163.26848988 62.25 166.875 C54.08954373 173.43884526 40.55371865 175.79132559 30.25 175 C26.375 174.1875 26.375 174.1875 24.375 171.1875 C24.13208008 169.03710938 24.13208008 169.03710938 24.14453125 166.53125 C24.14582031 165.60111084 24.14710938 164.67097168 24.1484375 163.71264648 C24.16132813 162.71434814 24.17421875 161.7160498 24.1875 160.6875 C24.19394531 159.65375244 24.20039063 158.62000488 24.20703125 157.55493164 C24.26923975 151.23250679 24.49414517 144.93553408 24.875 138.625 C27.79257227 101.39345147 27.79257227 101.39345147 15.1875 67.4375 C8.39553065 60.70497896 -1.23452135 59.05925936 -10.4375 58.9375 C-18.0463075 59.00905618 -24.36640697 60.05111735 -30.1875 65.4609375 C-53.56889804 93.54402971 -44.71035665 151.91445538 -41.82800293 186.05407715 C-40.97066741 195.06409092 -39.5066603 204.01018673 -37.96044922 212.92382812 C-37.625 215.1875 -37.625 215.1875 -37.625 218.1875 C-46.93547335 221.59847987 -58.21853249 224.38403178 -67.625 220.1875 C-72.33207442 216.32601129 -72.56411795 212.79435078 -73.30038452 206.97888184 C-73.88814593 200.1140585 -73.93289834 193.27445918 -73.92578125 186.390625 C-73.92968568 184.78757622 -73.93402381 183.18452845 -73.93876648 181.58148193 C-73.94618051 178.23316084 -73.94597592 174.88494521 -73.94067383 171.53662109 C-73.93606815 168.15855503 -73.94286881 164.78085113 -73.96118164 161.40283203 C-74.3898912 81.60971798 -74.3898912 81.60971798 -50.625 57.1875 C-42.1947704 49.43610911 -32.61708916 45.06415312 -21.625 42.1875 C-21.90758844 30.31478051 -21.90758844 30.31478051 -25.625 19.1875 C-26.346875 18.65125 -27.06875 18.115 -27.8125 17.5625 C-29.625 16.1875 -29.625 16.1875 -30.1875 12.75 C-29.625 9.1875 -29.625 9.1875 -27.52734375 7.1015625 C-24.25807631 4.94551802 -21.40498104 3.99794758 -17.625 3 C-16.42875 2.67644531 -15.2325 2.35289062 -14 2.01953125 C-9.23564231 0.84498474 -4.91916219 0.03387853 0 0 Z " fill="#258067" transform="translate(2831.625,2852.8125)"/>
<path d="M0 0 C1.39798828 -0.03867188 1.39798828 -0.03867188 2.82421875 -0.078125 C5.3125 0.25 5.3125 0.25 7.09375 1.49609375 C11.22736155 7.44478474 9.18491166 16.84471578 8.09375 23.4921875 C3.40231368 46.0579962 -7.54121822 67.53012488 -20.5 86.4375 C-32.99910621 104.71906641 -48.92288875 128.39584624 -49 151.375 C-49.01675781 152.53257812 -49.03351562 153.69015625 -49.05078125 154.8828125 C-48.56376356 159.39689044 -47.16327399 162.82511477 -43.875 166 C-35.59520357 170.73131224 -26.23929216 170.41652722 -17 170.453125 C-15.8658667 170.45882507 -14.7317334 170.46452515 -13.56323242 170.47039795 C-11.15935185 170.47982735 -8.75545847 170.48637373 -6.3515625 170.49023438 C-2.75496205 170.4998202 0.8410364 170.5308131 4.4375 170.5625 C21.70602489 170.64073985 38.25647278 169.03743913 55.25 166.0625 C59.72029323 165.29355743 63.78054074 164.8380037 68.3125 165.25 C70.35482087 166.77117692 71.20543914 167.62675287 71.640625 170.16015625 C71.61484375 170.87042969 71.5890625 171.58070313 71.5625 172.3125 C71.53800781 173.09882813 71.51351562 173.88515625 71.48828125 174.6953125 C71.2467587 178.20544016 70.87602144 181.69333084 70.43359375 185.18359375 C70.13641299 187.31346961 70.13641299 187.31346961 71.3125 189.25 C71.9725 189.415 72.6325 189.58 73.3125 189.75 C73.9725 189.915 74.6325 190.08 75.3125 190.25 C76.73291821 193.09083641 76.62702272 195.10477278 76.3125 198.25 C72.38113948 203.47225501 66.93481466 203.7461569 60.85546875 204.7109375 C56.21888308 205.32322142 51.61204399 205.5708489 46.9375 205.625 C46.20635986 205.63885742 45.47521973 205.65271484 44.72192383 205.66699219 C42.6640625 205.6484375 42.6640625 205.6484375 39.3125 205.25 C36.46739571 200.98234357 36.91908461 197.25848052 37.3125 192.25 C37.81323772 189.80674527 38.49069741 187.61268245 39.3125 185.25 C38.81363281 185.40339844 38.31476562 185.55679688 37.80078125 185.71484375 C34.38896614 186.44862502 30.9749859 186.61997126 27.5 186.8125 C26.83291016 186.85568359 26.16582031 186.89886719 25.47851562 186.94335938 C18.09476402 187.3713045 10.70554429 187.28843871 3.3125 187.25 C5.53319734 215.33707629 5.53319734 215.33707629 9.3125 243.25 C-0.48525394 246.4285521 -11.81294576 249.63869077 -21.6875 245.25 C-24.47866901 243.20314273 -25.00209698 241.56176079 -25.6875 238.25 C-27.00637202 227.52378911 -26.8052928 216.72168298 -26.75 205.9375 C-26.74497105 204.21419402 -26.74041063 202.49088661 -26.73632812 200.76757812 C-26.725442 196.59501591 -26.70825565 192.42252432 -26.6875 188.25 C-27.4623877 188.26571045 -28.23727539 188.2814209 -29.03564453 188.29760742 C-65.24096943 188.93538518 -65.24096943 188.93538518 -75.9140625 181 C-81.88234625 175.11059225 -82.93814845 167.47350415 -83 159.4375 C-82.98314606 139.52737679 -73.59804898 122.17006459 -63.33203125 105.578125 C-57.19296975 95.62602688 -51.49412999 85.39802065 -45.6875 75.25 C-45.17413086 74.35684082 -44.66076172 73.46368164 -44.13183594 72.54345703 C-34.42935297 55.62912848 -25.72757007 39.30186955 -26.6875 19.25 C-27.32558594 18.98960937 -27.96367187 18.72921875 -28.62109375 18.4609375 C-30.6875 17.25 -30.6875 17.25 -31.75 13.875 C-31.6875 10.25 -31.6875 10.25 -29.6484375 8.19140625 C-26.3243039 6.01186219 -23.01404102 4.72961541 -19.25 3.5625 C-18.60740234 3.35044922 -17.96480469 3.13839844 -17.30273438 2.91992188 C-11.54124447 1.06571649 -6.04410264 0.10115653 0 0 Z " fill="#258067" transform="translate(3415.6875,2852.75)"/>
<path d="M0 0 C2.89094599 -0.0640938 5.78160584 -0.10826281 8.67297363 -0.14825439 C9.55639435 -0.17174454 10.43981506 -0.19523468 11.3500061 -0.21943665 C14.88871759 -0.25115656 17.39818445 -0.24182895 20.63146973 1.27459717 C22.53045531 3.66379055 22.44732959 4.93286687 22.22766113 7.95330811 C22.16965332 8.89110107 22.11164551 9.82889404 22.05187988 10.79510498 C21.93006348 12.25980225 21.93006348 12.25980225 21.80578613 13.75408936 C21.74004395 14.74215576 21.67430176 15.73022217 21.60656738 16.74822998 C21.4414504 19.18960244 21.25718232 21.62798553 21.05578613 24.06658936 C22.70578613 24.39658936 24.35578613 24.72658936 26.05578613 25.06658936 C26.13710077 26.50314789 26.19512172 27.94103766 26.24328613 29.37908936 C26.27809082 30.17959717 26.31289551 30.98010498 26.34875488 31.80487061 C26.05578613 34.06658936 26.05578613 34.06658936 24.96594238 35.75799561 C17.57634405 40.82039937 1.70406083 41.54589133 -6.94421387 41.06658936 C-9.81530762 39.76190186 -9.81530762 39.76190186 -11.94421387 38.06658936 C-13.85865969 31.94036272 -12.2502421 26.21286842 -10.94421387 20.06658936 C-18.99510739 19.19742435 -26.97367023 18.85428688 -35.06921387 18.81658936 C-36.18425293 18.79596436 -37.29929199 18.77533936 -38.44812012 18.75408936 C-48.18333027 18.70822264 -55.95405282 20.06603806 -63.15905762 26.94158936 C-87.82929166 56.30834498 -77.40233239 132.47749109 -74.53796387 168.46112061 C-73.58418262 185.87703878 -73.58418262 185.87703878 -64.94421387 200.06658936 C-45.48530055 210.99896066 -18.002895 204.60641755 2.80578613 200.87908936 C8.12589786 199.95994853 13.68970103 199.21059293 19.05578613 200.06658936 C20.69348145 201.29754639 20.69348145 201.29754639 22.05578613 203.06658936 C22.30456543 205.24310303 22.30456543 205.24310303 22.13000488 207.73455811 C22.07521973 208.62723389 22.02043457 209.51990967 21.96398926 210.43963623 C21.85474121 211.83279053 21.85474121 211.83279053 21.74328613 213.25408936 C21.68205566 214.19446045 21.6208252 215.13483154 21.55773926 216.10369873 C21.40449102 218.42599892 21.23665753 220.74630393 21.05578613 223.06658936 C22.70578613 223.72658936 24.35578613 224.38658936 26.05578613 225.06658936 C26.19115388 226.50148744 26.28795756 227.94006042 26.36828613 229.37908936 C26.45529785 230.57985107 26.45529785 230.57985107 26.54406738 231.80487061 C26.05578613 234.06658936 26.05578613 234.06658936 24.07141113 235.75408936 C20.25010002 237.41725067 16.59715042 238.1267936 12.49328613 238.75408936 C11.69914307 238.88001465 10.905 239.00593994 10.08679199 239.13568115 C-6.60111456 241.62865556 -6.60111456 241.62865556 -11.94421387 238.06658936 C-13.21648093 233.4668546 -12.85740693 229.98712329 -11.95593262 225.31268311 C-11.67495728 223.83626343 -11.67495728 223.83626343 -11.38830566 222.33001709 C-11.24175537 221.58308594 -11.09520508 220.83615479 -10.94421387 220.06658936 C-11.57472656 220.12193848 -12.20523926 220.1772876 -12.8548584 220.23431396 C-26.12133292 221.37772939 -39.3882547 222.28767035 -52.69421387 222.81658936 C-53.90480469 222.87322754 -55.11539551 222.92986572 -56.3626709 222.98822021 C-70.30392907 223.47787279 -83.49380137 222.34493124 -94.88171387 213.57440186 C-110.4112998 197.967168 -106.38573634 162.00213001 -106.35437012 141.53729248 C-106.34855123 139.90976772 -106.34220181 138.28224477 -106.33532715 136.65472412 C-106.31827938 132.58111848 -106.32837664 128.50810312 -106.34565639 124.43451786 C-106.63875081 42.75041774 -106.63875081 42.75041774 -84.94421387 19.06658936 C-71.25979932 5.77731747 -54.50539905 1.1327306 -35.81140137 0.75018311 C-34.93887726 0.72940201 -34.06635315 0.70862091 -33.16738892 0.68721008 C-31.32009337 0.64411755 -29.47274948 0.60305557 -27.62536621 0.56390381 C-24.87604104 0.50530065 -22.12694906 0.43984132 -19.37780762 0.37322998 C-14.83340805 0.26662263 -10.28899805 0.18375108 -5.74389648 0.11364746 C-3.82916005 0.08146386 -1.91451729 0.04330068 0 0 Z " fill="#258067" transform="translate(2688.9442138671875,2851.9334106445313)"/>
<path d="M0 0 C31.02 0 62.04 0 94 0 C94 7.26 94 14.52 94 22 C70.9 22 47.8 22 24 22 C24 38.5 24 55 24 72 C42.15 72 60.3 72 79 72 C82 90 82 90 82 94 C62.86 94 43.72 94 24 94 C24 112.81 24 131.62 24 151 C47.76 151 71.52 151 96 151 C96 158.26 96 165.52 96 173 C64.32 173 32.64 173 0 173 C0 115.91 0 58.82 0 0 Z " fill="#258067" transform="translate(1921,2432)"/>
<path d="M0 0 C8.58867181 5.92948688 14.97663339 14.04759727 18.78125 23.71484375 C19.17441406 24.67648438 19.56757813 25.638125 19.97265625 26.62890625 C26.75211633 46.80193381 24.77554855 71.83995059 16.09375 91.08984375 C9.27756269 103.72640259 -1.98541794 113.53976974 -15.71875 117.80078125 C-21.1808819 119.10321196 -26.62866625 119.08300154 -32.21875 119.08984375 C-33.24097656 119.11433594 -34.26320313 119.13882813 -35.31640625 119.1640625 C-44.39756032 119.19782144 -52.54832678 117.1704434 -61.21875 114.71484375 C-61.21652939 115.27638657 -61.21430878 115.83792938 -61.21202087 116.41648865 C-61.18996694 122.2396481 -61.17484295 128.06279576 -61.16381836 133.88598633 C-61.15877692 136.06177248 -61.15194393 138.23755522 -61.14331055 140.41333008 C-61.13123662 143.53337442 -61.12551995 146.65337413 -61.12109375 149.7734375 C-61.11593246 150.75259628 -61.11077118 151.73175507 -61.10545349 152.74058533 C-61.10534019 154.09187279 -61.10534019 154.09187279 -61.10522461 155.47045898 C-61.103004 156.26765854 -61.10078339 157.06485809 -61.09849548 157.88621521 C-61.21875 159.71484375 -61.21875 159.71484375 -62.21875 160.71484375 C-64.3974134 161.11983274 -66.58762975 161.4633048 -68.78125 161.77734375 C-70.57755859 162.04224609 -70.57755859 162.04224609 -72.41015625 162.3125 C-76.32684376 162.72626289 -80.28026796 162.71484375 -84.21875 162.71484375 C-84.21875 108.26484375 -84.21875 53.81484375 -84.21875 -2.28515625 C-77.94875 -2.28515625 -71.67875 -2.28515625 -65.21875 -2.28515625 C-64.22875 2.33484375 -63.23875 6.95484375 -62.21875 11.71484375 C-60.8575 10.37421875 -59.49625 9.03359375 -58.09375 7.65234375 C-42.5073585 -6.44220742 -18.71866459 -10.84232509 0 0 Z M-51.21875 24.71484375 C-52.09450684 25.29919189 -52.97026367 25.88354004 -53.87255859 26.4855957 C-58.21069299 30.05434801 -60.75084261 33.10291589 -61.74182129 38.63470459 C-62.43027309 46.71308431 -62.18018831 54.7994263 -61.90539551 62.89318848 C-61.80214802 66.25823879 -61.75722822 69.6240488 -61.70703125 72.99023438 C-61.59732651 79.56707246 -61.43042949 86.14053944 -61.21875 92.71484375 C-59.95920765 93.36314993 -58.69746017 94.00717296 -57.43481445 94.64941406 C-56.73242142 95.00851868 -56.03002838 95.36762329 -55.30635071 95.73760986 C-45.4114611 100.36954038 -32.91938301 101.46284768 -22.53125 98.15234375 C-13.87132758 94.59955506 -8.63286878 89.11301079 -4.47265625 80.78125 C2.05788996 64.81091113 1.50887397 46.79829558 -4.21875 30.71484375 C-7.86186152 23.12415318 -12.86109748 18.34896344 -20.71875 15.40234375 C-32.87383259 13.01473824 -41.88679085 17.23428122 -51.21875 24.71484375 Z " fill="#258067" transform="translate(2552.21875,2488.28515625)"/>
<path d="M0 0 C0.33 24.75 0.66 49.5 1 75 C4.96 72.03 8.92 69.06 13 66 C26.2352807 59.31120223 39.5243697 56.6938264 54.24609375 59.65234375 C62.2201625 62.5508742 68.09708157 67.72277988 71.9375 75.25 C73.76733445 79.24462166 75.12591871 82.65748555 75.12025452 87.08122253 C75.12231651 88.32428917 75.12231651 88.32428917 75.12442017 89.59246826 C75.11902725 90.95084808 75.11902725 90.95084808 75.11352539 92.33666992 C75.11367142 93.29295792 75.11381744 94.24924591 75.1139679 95.23451233 C75.11327044 98.3998541 75.1054858 101.56513724 75.09765625 104.73046875 C75.09579148 106.92336495 75.09436785 109.11626156 75.09336853 111.30915833 C75.08954802 117.08447416 75.07972168 122.85976489 75.06866455 128.6350708 C75.05844044 134.52689271 75.05386876 140.41871866 75.04882812 146.31054688 C75.03809902 157.87371072 75.02050596 169.43684935 75 181 C67.41 181 59.82 181 52 181 C51.98541748 178.37087646 51.97083496 175.74175293 51.95581055 173.03295898 C51.90542014 164.33564141 51.83881709 155.63850204 51.76428509 146.94135952 C51.71960286 141.66949944 51.68034188 136.39771626 51.65356445 131.12573242 C51.62751024 126.03571407 51.58709252 120.94599198 51.53681374 115.8561573 C51.52015941 113.91659296 51.50863621 111.97697739 51.50238609 110.03735161 C51.49272948 107.31552116 51.46465149 104.59444619 51.43237305 101.87280273 C51.43380814 101.07510468 51.43524323 100.27740662 51.4367218 99.45553589 C51.3332522 93.26568529 50.19337792 88.38691127 45.875 83.6875 C39.60982482 80.01011457 33.61921118 79.38338272 26.59375 81.12890625 C17.14559527 84.30200641 6.45225251 90.38384217 1 99 C-1.06779192 105.078199 -0.54114834 111.68333301 -0.390625 118.01171875 C-0.39068143 119.83446501 -0.39603884 121.65721807 -0.40643311 123.47993469 C-0.41953643 128.24381622 -0.36133457 133.00417303 -0.28753662 137.76739502 C-0.2248876 142.64108133 -0.23068082 147.51465371 -0.23046875 152.38867188 C-0.22008909 161.92719815 -0.12794171 171.46232553 0 181 C-7.59 181 -15.18 181 -23 181 C-23 122.26 -23 63.52 -23 3 C-5 0 -5 0 0 0 Z " fill="#258067" transform="translate(2158,2424)"/>
<path d="M0 0 C1.25876953 -0.01998047 2.51753906 -0.03996094 3.81445312 -0.06054688 C15.2668917 -0.05463441 26.14746162 1.80674693 35.06640625 9.44921875 C42.43731729 17.28177349 44.25096163 26.58012947 44.16455078 36.95288086 C44.16484283 37.88049225 44.16513489 38.80810364 44.16543579 39.76382446 C44.16404967 42.81009487 44.14852231 45.85611641 44.1328125 48.90234375 C44.12907982 51.02226121 44.12623405 53.14218041 44.12423706 55.26210022 C44.1166207 60.82696338 44.09698937 66.39172125 44.0748291 71.95654297 C44.05432761 77.64093603 44.04522615 83.3253462 44.03515625 89.00976562 C44.01374158 100.15239733 43.97857571 111.29492341 43.9375 122.4375 C37.6675 122.4375 31.3975 122.4375 24.9375 122.4375 C23.9475 116.4975 23.9475 116.4975 22.9375 110.4375 C19.87683251 111.96783375 17.93258819 113.15642349 15.375 115.25 C2.06113076 125.40927709 -12.90973504 126.65534248 -29.0625 125.4375 C-36.75843755 124.04355036 -43.03985753 120.47378233 -48.0625 114.4375 C-54.88311917 103.24556131 -55.80633652 91.06394887 -53.484375 78.24609375 C-50.23687117 69.04975336 -42.53788841 61.41271186 -34.08984375 56.8046875 C-16.89107126 49.03749992 2.12136876 45.0605507 20.9375 44.4375 C20.68573475 37.58948527 20.41986405 30.94626046 15.9375 25.4375 C8.57124388 19.58532423 -0.82218405 20.07722768 -9.6875 21.0625 C-18.15255612 22.14466617 -26.0220271 24.66131066 -34.0625 27.4375 C-35.89542228 28.04291256 -37.72867287 28.64733381 -39.5625 29.25 C-40.7175 29.641875 -41.8725 30.03375 -43.0625 30.4375 C-45.10788889 23.48317778 -45.64419634 16.65874213 -46.0625 9.4375 C-43.52475563 8.48815011 -40.98297739 7.5532215 -38.4375 6.625 C-37.74398437 6.36396484 -37.05046875 6.10292969 -36.3359375 5.83398438 C-24.37569953 1.50907689 -12.68042236 -0.0716408 0 0 Z M-26.640625 77.8359375 C-30.3757763 81.72135351 -31.86256382 86.15223065 -32.0625 91.4375 C-31.33192412 96.13728713 -30.01956727 99.45524675 -26.6875 102.875 C-19.79060202 106.98029642 -13.35349223 107.40170838 -5.51171875 105.97265625 C1.10120203 104.19022625 7.24619757 101.23170162 12.9375 97.4375 C13.63004883 97.02298584 14.32259766 96.60847168 15.03613281 96.18139648 C18.73378874 93.59230075 20.67044195 91.77034207 21.57666016 87.24755859 C21.72505792 83.46826024 21.6357744 79.7767461 21.4375 76 C21.40140625 74.69611328 21.3653125 73.39222656 21.328125 72.04882812 C21.23415243 68.84201416 21.10288988 65.6412929 20.9375 62.4375 C4.90994672 62.4375 -14.5351552 67.10881327 -26.640625 77.8359375 Z " fill="#258067" transform="translate(2716.0625,2482.5625)"/>
<path d="M0 0 C12.00327596 9.1247474 19.9376691 22.30341637 22.2109375 37.28955078 C24.58226705 59.25316733 23.37531135 81.04062644 9.0859375 98.90234375 C-0.41829385 109.16132289 -12.74395634 115.63051855 -26.86328125 116.23046875 C-44.58882459 116.50523656 -58.87461672 114.29165127 -72.2578125 101.64453125 C-86.87786784 86.12359222 -89.22232251 65.97855036 -88.63085938 45.48291016 C-87.89747899 30.05572987 -81.79802193 15.08179554 -70.91015625 4.0078125 C-51.43851094 -13.12090313 -21.355044 -14.70093609 0 0 Z M-56.5078125 20.89453125 C-65.99372932 35.99497576 -67.01051439 52.62849532 -63.5078125 69.89453125 C-60.94085963 79.9954908 -56.28844276 87.83402633 -47.3203125 93.39453125 C-39.7691896 97.67548281 -31.34656477 98.18440952 -22.9453125 95.95703125 C-15.47758168 93.08792102 -9.35643163 87.11417397 -5.5703125 80.14453125 C0.94214097 65.11046313 1.85339546 47.43191885 -3.5078125 31.89453125 C-7.47102419 22.41245469 -12.89025667 15.76108209 -22.3203125 11.45703125 C-35.31377643 6.8335901 -47.68762091 10.53246406 -56.5078125 20.89453125 Z " fill="#258067" transform="translate(2414.5078125,2492.10546875)"/>
<path d="M0 0 C0 14.19 0 28.38 0 43 C8.58 43 17.16 43 26 43 C28 50 28 50 29 62 C19.43 62 9.86 62 0 62 C0.12006298 73.71301416 0.12006298 73.71301416 0.2578125 85.42578125 C0.31796786 90.20747816 0.37611382 94.98913694 0.421875 99.77099609 C0.45892652 103.62905871 0.50533845 107.48690848 0.55806351 111.3447876 C0.57650249 112.81183107 0.59164858 114.27891998 0.60334396 115.74603271 C0.2422021 128.18572977 0.2422021 128.18572977 4.75 139.375 C9.6385621 142.90562818 14.48062675 143.23621459 20.375 143.125 C21.62023438 143.10695313 22.86546875 143.08890625 24.1484375 143.0703125 C25.08945313 143.04710938 26.03046875 143.02390625 27 143 C28.91610155 149.64248536 29.56367091 156.11059329 30 163 C24.97724444 164.67425185 19.75924698 164.26886687 14.5 164.3125 C13.365625 164.34150391 12.23125 164.37050781 11.0625 164.40039062 C1.14294998 164.47433222 -8.13639251 162.73114232 -15.56640625 155.7109375 C-20.99580404 149.23116575 -22.15381995 142.42494679 -22.11352539 134.20214844 C-22.11367142 133.42127869 -22.11381744 132.64040894 -22.1139679 131.83587646 C-22.11327242 129.26034751 -22.10549712 126.68489129 -22.09765625 124.109375 C-22.09579077 122.32147257 -22.09436748 120.53356963 -22.09336853 118.7456665 C-22.08955357 114.04389022 -22.07973198 109.34214492 -22.06866455 104.64038086 C-22.05842849 99.84098734 -22.0538662 95.0415888 -22.04882812 90.2421875 C-22.03810881 80.82810921 -22.02052026 71.41406203 -22 62 C-27.94 62 -33.88 62 -40 62 C-40 55.73 -40 49.46 -40 43 C-34.06 43 -28.12 43 -22 43 C-22 29.8 -22 16.6 -22 3 C-14.08477279 1.0211932 -8.11402747 0 0 0 Z " fill="#258067" transform="translate(2075,2443)"/>
<path d="M0 0 C7.59 0 15.18 0 23 0 C23 39.27 23 78.54 23 119 C15.41 119 7.82 119 0 119 C0 79.73 0 40.46 0 0 Z " fill="#258067" transform="translate(2607,2486)"/>
<path d="M0 0 C7.59 0 15.18 0 23 0 C23 39.27 23 78.54 23 119 C15.41 119 7.82 119 0 119 C0 79.73 0 40.46 0 0 Z " fill="#258067" transform="translate(2271,2486)"/>
<path d="M0 0 C3.29509464 2.98127611 4.43060869 5.08924293 5.625 9.375 C5.76007781 14.62502423 5.03643211 19.23254672 1.625 23.375 C-2.37510326 27.00009358 -6.63607092 26.8191213 -11.78515625 26.66015625 C-15.06290197 26.29925815 -16.89313384 25.55603389 -19.375 23.375 C-20.138125 22.735625 -20.90125 22.09625 -21.6875 21.4375 C-24.37712907 16.55632132 -24.33066814 11.80721889 -23.375 6.375 C-21.36615274 2.50413152 -18.67764908 0.21996157 -15.0625 -2.125 C-9.60527083 -3.14029845 -4.98286261 -2.39915607 0 0 Z " fill="#258067" transform="translate(2627.375,2435.625)"/>
<path d="M0 0 C3.29509464 2.98127611 4.43060869 5.08924293 5.625 9.375 C5.76007781 14.62502423 5.03643211 19.23254672 1.625 23.375 C-2.37510326 27.00009358 -6.63607092 26.8191213 -11.78515625 26.66015625 C-15.06290197 26.29925815 -16.89313384 25.55603389 -19.375 23.375 C-20.138125 22.735625 -20.90125 22.09625 -21.6875 21.4375 C-24.37712907 16.55632132 -24.33066814 11.80721889 -23.375 6.375 C-21.36615274 2.50413152 -18.67764908 0.21996157 -15.0625 -2.125 C-9.60527083 -3.14029845 -4.98286261 -2.39915607 0 0 Z " fill="#258067" transform="translate(2291.375,2435.625)"/>
</svg>
